<svg width="16" height="16" viewBox="0 0 16 16" fill="none" xmlns="http://www.w3.org/2000/svg">
<path d="M8.74023 5.10933L9.9269 6.89066" stroke="#333333" stroke-width="1.33333" stroke-linecap="round" stroke-linejoin="round"/>
<path d="M9.44061 8.52533L7.22461 9.47466" stroke="#333333" stroke-width="1.33333" stroke-linecap="round" stroke-linejoin="round"/>
<path d="M13.333 2.66667L9.29297 3.67667" stroke="#333333" stroke-width="1.33333" stroke-linecap="round" stroke-linejoin="round"/>
<path d="M2 2V12.6667C2 13.0203 2.14048 13.3594 2.39052 13.6095C2.64057 13.8595 2.97971 14 3.33333 14H14" stroke="#333333" stroke-width="1.33333" stroke-linecap="round" stroke-linejoin="round"/>
<path d="M7.99935 5.33334C8.73573 5.33334 9.33268 4.73638 9.33268 4.00001C9.33268 3.26363 8.73573 2.66667 7.99935 2.66667C7.26297 2.66667 6.66602 3.26363 6.66602 4.00001C6.66602 4.73638 7.26297 5.33334 7.99935 5.33334Z" stroke="#333333" stroke-width="1.33333" stroke-linecap="round" stroke-linejoin="round"/>
<path d="M10.6673 9.33334C11.4037 9.33334 12.0007 8.73638 12.0007 8.00001C12.0007 7.26363 11.4037 6.66667 10.6673 6.66667C9.93094 6.66667 9.33398 7.26363 9.33398 8.00001C9.33398 8.73638 9.93094 9.33334 10.6673 9.33334Z" stroke="#333333" stroke-width="1.33333" stroke-linecap="round" stroke-linejoin="round"/>
<path d="M5.99935 11.3333C6.73573 11.3333 7.33268 10.7364 7.33268 10C7.33268 9.26363 6.73573 8.66667 5.99935 8.66667C5.26297 8.66667 4.66602 9.26363 4.66602 10C4.66602 10.7364 5.26297 11.3333 5.99935 11.3333Z" stroke="#333333" stroke-width="1.33333" stroke-linecap="round" stroke-linejoin="round"/>
</svg>
