<svg width="17" height="16" viewBox="0 0 17 16" fill="none" xmlns="http://www.w3.org/2000/svg">
<path d="M10.6654 1.33333H4.66536C4.31174 1.33333 3.9726 1.4738 3.72256 1.72385C3.47251 1.9739 3.33203 2.31304 3.33203 2.66666V13.3333C3.33203 13.6869 3.47251 14.0261 3.72256 14.2761C3.9726 14.5262 4.31174 14.6667 4.66536 14.6667H12.6654C13.019 14.6667 13.3581 14.5262 13.6082 14.2761C13.8582 14.0261 13.9987 13.6869 13.9987 13.3333V4.66666L10.6654 1.33333Z" stroke="#333333" stroke-width="1.33333" stroke-linecap="round" stroke-linejoin="round"/>
<path d="M10 1.33333V3.99999C10 4.35362 10.1405 4.69276 10.3905 4.9428C10.6406 5.19285 10.9797 5.33333 11.3333 5.33333H14" stroke="#333333" stroke-width="1.33333" stroke-linecap="round" stroke-linejoin="round"/>
<path d="M6.66602 10H10.666" stroke="#333333" stroke-width="1.33333" stroke-linecap="round" stroke-linejoin="round"/>
</svg>
