<svg width="14" height="14" viewBox="0 0 14 14" fill="none" xmlns="http://www.w3.org/2000/svg">
<path d="M10.8667 11.8L9.66667 6.33333L12 4C13 3 13.3333 1.66667 13 1C12.3333 0.666667 11 1 10 2L7.66667 4.33333L2.2 3.13333C1.86667 3.06667 1.6 3.2 1.46667 3.46667L1.26667 3.8C1.13333 4.13333 1.2 4.46667 1.46667 4.66667L5 7L3.66667 9H1.66667L1 9.66667L3 11L4.33333 13L5 12.3333V10.3333L7 9L9.33333 12.5333C9.53333 12.8 9.86667 12.8667 10.2 12.7333L10.5333 12.6C10.8 12.4 10.9333 12.1333 10.8667 11.8Z" stroke="#333333" stroke-width="1.33333" stroke-linecap="round" stroke-linejoin="round"/>
</svg>
