<svg width="17" height="17" viewBox="0 0 17 17" fill="none" xmlns="http://www.w3.org/2000/svg">
<path d="M7.66797 11.8334L9.0013 13.1667C9.13262 13.298 9.28853 13.4022 9.46011 13.4733C9.63169 13.5443 9.81558 13.5809 10.0013 13.5809C10.187 13.5809 10.3709 13.5443 10.5425 13.4733C10.7141 13.4022 10.87 13.298 11.0013 13.1667C11.1326 13.0354 11.2368 12.8795 11.3079 12.7079C11.3789 12.5363 11.4155 12.3524 11.4155 12.1667C11.4155 11.981 11.3789 11.7971 11.3079 11.6255C11.2368 11.4539 11.1326 11.298 11.0013 11.1667" stroke="#333333" stroke-width="1.33333" stroke-linecap="round" stroke-linejoin="round"/>
<path d="M9.66747 9.83333L11.3341 11.5C11.5994 11.7652 11.9591 11.9142 12.3341 11.9142C12.7092 11.9142 13.0689 11.7652 13.3341 11.5C13.5994 11.2348 13.7483 10.8751 13.7483 10.5C13.7483 10.1249 13.5994 9.76522 13.3341 9.5L10.7475 6.91333C10.3725 6.5388 9.86414 6.32843 9.33414 6.32843C8.80413 6.32843 8.2958 6.5388 7.9208 6.91333L7.33414 7.5C7.06892 7.76522 6.70921 7.91421 6.33414 7.91421C5.95906 7.91421 5.59935 7.76522 5.33414 7.5C5.06892 7.23478 4.91992 6.87507 4.91992 6.5C4.91992 6.12493 5.06892 5.76522 5.33414 5.5L7.20747 3.62667C7.81563 3.0201 8.60873 2.6337 9.46123 2.52865C10.3137 2.4236 11.1769 2.60589 11.9141 3.04667L12.2275 3.23333C12.5113 3.40466 12.8488 3.46408 13.1741 3.4L14.3341 3.16667" stroke="#333333" stroke-width="1.33333" stroke-linecap="round" stroke-linejoin="round"/>
<path d="M14.3346 2.5L15.0013 9.83333H13.668" stroke="#333333" stroke-width="1.33333" stroke-linecap="round" stroke-linejoin="round"/>
<path d="M2.33464 2.5L1.66797 9.83333L6.0013 14.1667C6.26652 14.4319 6.62623 14.5809 7.0013 14.5809C7.37638 14.5809 7.73609 14.4319 8.0013 14.1667C8.26652 13.9014 8.41552 13.5417 8.41552 13.1667C8.41552 12.7916 8.26652 12.4319 8.0013 12.1667" stroke="#333333" stroke-width="1.33333" stroke-linecap="round" stroke-linejoin="round"/>
<path d="M2.33398 3.16669H7.66732" stroke="#333333" stroke-width="1.33333" stroke-linecap="round" stroke-linejoin="round"/>
</svg>
