<svg width="16" height="16" viewBox="0 0 16 16" fill="none" xmlns="http://www.w3.org/2000/svg">
<path d="M5.33398 4.66667V3.33333C5.33398 2.97971 5.47446 2.64057 5.72451 2.39052C5.97456 2.14048 6.3137 2 6.66732 2H9.33398C9.68761 2 10.0267 2.14048 10.2768 2.39052C10.5268 2.64057 10.6673 2.97971 10.6673 3.33333V4.66667" stroke="#333333" stroke-width="1.33333" stroke-linecap="round" stroke-linejoin="round"/>
<path d="M2.66732 14C2.3137 14 1.97456 13.8595 1.72451 13.6095C1.47446 13.3594 1.33398 13.0203 1.33398 12.6667V8.00002C1.33398 7.60002 1.53398 7.13335 1.80065 6.86669L3.53398 5.13335C3.80065 4.86669 4.26732 4.66669 4.66732 4.66669H11.334C11.734 4.66669 12.2007 4.86669 12.4673 5.13335L14.2007 6.86669C14.4673 7.13335 14.6673 7.66669 14.6673 8.00002V12.6667C14.6673 13.0203 14.5268 13.3594 14.2768 13.6095C14.0267 13.8595 13.6876 14 13.334 14H2.66732Z" stroke="#333333" stroke-width="1.33333" stroke-linecap="round" stroke-linejoin="round"/>
<path d="M1.33398 9.33331H14.6673" stroke="#333333" stroke-width="1.33333" stroke-linecap="round" stroke-linejoin="round"/>
<path d="M6 10.6667V8" stroke="#333333" stroke-width="1.33333" stroke-linecap="round" stroke-linejoin="round"/>
<path d="M10 10.6667V8" stroke="#333333" stroke-width="1.33333" stroke-linecap="round" stroke-linejoin="round"/>
</svg>
