<svg width="399" height="400" viewBox="0 0 399 400" fill="none" xmlns="http://www.w3.org/2000/svg">
<g clip-path="url(#clip0_1262_6014)">
<path d="M391.984 267.223C393.757 257.949 405.541 212.818 393.975 161.407C391.173 148.951 379.847 98.6091 347.776 62.6383C293.186 1.41154 173.84 -23.3977 86.2705 41.1996C-15.7275 116.44 -22.7806 277.413 41.4726 348.821C73.8225 384.773 146.621 406.203 183.076 398.403C228.075 388.775 266.608 351.909 295.113 369.269C308.842 377.628 307.02 390.516 317.538 392.259C342.484 396.392 379.442 332.775 391.984 267.226V267.223Z" fill="#DCF3EB"/>
<path d="M132.038 29.3434C131.761 29.3434 131.497 29.1843 131.378 28.9164C131.214 28.5525 131.378 28.1255 131.741 27.9621C132.628 27.5655 133.515 27.1777 134.404 26.7986C134.77 26.6418 135.197 26.8117 135.352 27.1799C135.509 27.5481 135.339 27.9708 134.971 28.1277C134.088 28.5046 133.21 28.888 132.33 29.2802C132.234 29.3238 132.134 29.3434 132.036 29.3434H132.038Z" fill="#263773"/>
<path d="M359.008 163.281C358.731 163.281 358.466 163.12 358.346 162.849C358.184 162.483 358.35 162.058 358.714 161.895C360.479 161.115 362.218 160.246 363.88 159.311C364.229 159.115 364.669 159.239 364.865 159.588C365.061 159.936 364.937 160.376 364.588 160.573C362.884 161.531 361.104 162.422 359.298 163.22C359.202 163.261 359.104 163.281 359.006 163.281H359.008ZM369.186 157.551C368.959 157.551 368.735 157.444 368.593 157.243C368.364 156.917 368.443 156.466 368.767 156.237C370.358 155.119 371.883 153.921 373.302 152.673C373.602 152.409 374.058 152.439 374.321 152.738C374.585 153.039 374.554 153.494 374.256 153.757C372.798 155.039 371.232 156.272 369.6 157.418C369.473 157.507 369.327 157.548 369.183 157.548L369.186 157.551ZM377.938 149.829C377.766 149.829 377.594 149.768 377.457 149.644C377.16 149.378 377.134 148.921 377.402 148.624C378.701 147.178 379.897 145.657 380.96 144.108C381.187 143.779 381.638 143.696 381.965 143.921C382.294 144.147 382.379 144.596 382.152 144.925C381.054 146.526 379.819 148.095 378.479 149.59C378.337 149.749 378.139 149.829 377.94 149.829H377.938ZM384.508 140.199C384.401 140.199 384.292 140.175 384.189 140.125C383.832 139.949 383.684 139.515 383.86 139.158C384.71 137.432 385.427 135.641 385.991 133.84C386.111 133.458 386.519 133.247 386.898 133.367C387.279 133.487 387.49 133.892 387.371 134.273C386.785 136.147 386.039 138.005 385.157 139.798C385.031 140.053 384.776 140.201 384.508 140.201V140.199ZM388.018 129.088C387.974 129.088 387.931 129.083 387.887 129.075C387.495 129.003 387.233 128.626 387.305 128.234C387.717 125.985 387.952 124.173 388.046 122.528C388.068 122.129 388.412 121.822 388.809 121.846C389.207 121.867 389.512 122.209 389.491 122.608C389.395 124.316 389.153 126.186 388.73 128.495C388.667 128.844 388.362 129.088 388.02 129.088H388.018ZM368.251 121.992C367.772 121.992 367.307 121.948 366.874 121.861C365.85 121.654 364.821 121.181 363.728 120.414C363.401 120.185 363.322 119.734 363.551 119.408C363.78 119.081 364.231 119.002 364.558 119.231C365.484 119.88 366.333 120.277 367.157 120.443C367.854 120.582 368.65 120.58 369.543 120.432C369.935 120.368 370.308 120.634 370.373 121.029C370.439 121.423 370.171 121.793 369.776 121.859C369.242 121.946 368.728 121.992 368.249 121.992H368.251ZM374.836 119.36C374.648 119.36 374.461 119.288 374.319 119.144C374.04 118.859 374.042 118.401 374.328 118.122C375.507 116.963 376.372 115.414 376.966 113.388C377.08 113.004 377.481 112.786 377.864 112.898C378.248 113.011 378.466 113.412 378.354 113.795C377.688 116.063 376.703 117.817 375.343 119.153C375.202 119.29 375.019 119.36 374.836 119.36ZM388.345 117.479C388.02 117.479 387.726 117.259 387.643 116.93C387.307 115.58 386.771 114.412 386.052 113.464C385.723 113.03 385.368 112.601 384.998 112.194C384.73 111.898 384.754 111.44 385.05 111.172C385.346 110.904 385.804 110.928 386.07 111.224C386.466 111.664 386.848 112.124 387.203 112.59C388.042 113.697 388.663 115.039 389.046 116.582C389.142 116.97 388.907 117.362 388.519 117.458C388.46 117.473 388.401 117.479 388.345 117.479ZM360.492 116.081C360.206 116.081 359.936 115.911 359.823 115.63C359.361 114.49 359.126 113.329 359.126 112.179C359.126 111.205 359.298 110.266 359.636 109.39C359.779 109.017 360.2 108.832 360.57 108.976C360.943 109.12 361.128 109.538 360.984 109.911C360.712 110.621 360.573 111.383 360.573 112.179C360.573 113.142 360.771 114.12 361.163 115.085C361.313 115.455 361.135 115.876 360.764 116.026C360.675 116.063 360.583 116.079 360.492 116.079V116.081ZM381.061 108.69C380.93 108.69 380.795 108.653 380.675 108.579C380.15 108.248 379.612 107.941 379.06 107.656C379.063 107.697 379.065 107.738 379.067 107.78C379.084 108.178 378.775 108.516 378.376 108.534C377.973 108.551 377.64 108.242 377.622 107.843C377.609 107.549 377.59 107.252 377.563 106.952C376.905 106.673 376.232 106.425 375.55 106.209C375.169 106.089 374.958 105.684 375.077 105.302C375.197 104.921 375.6 104.71 375.984 104.83C376.448 104.976 376.905 105.135 377.359 105.309C377.2 104.324 376.971 103.313 376.677 102.283C376.568 101.899 376.79 101.498 377.173 101.389C377.557 101.281 377.958 101.503 378.067 101.886C378.466 103.283 378.749 104.651 378.914 105.971C379.786 106.381 380.631 106.843 381.446 107.357C381.784 107.571 381.886 108.017 381.673 108.355C381.536 108.573 381.3 108.693 381.061 108.693V108.69ZM364.318 106.324C364.043 106.324 363.78 106.167 363.66 105.899C363.494 105.536 363.656 105.106 364.02 104.943C365.647 104.204 367.632 103.814 369.761 103.814H370.035C370.434 103.823 370.752 104.152 370.746 104.551C370.739 104.945 370.417 105.261 370.022 105.261C370.018 105.261 370.016 105.261 370.011 105.261H369.761C367.837 105.261 366.059 105.605 364.619 106.259C364.521 106.303 364.42 106.324 364.32 106.324H364.318ZM375.313 97.3545C375.04 97.3545 374.779 97.1998 374.657 96.9362C373.892 95.2912 372.973 93.5853 371.924 91.8641C371.717 91.522 371.824 91.0776 372.166 90.8706C372.506 90.6636 372.951 90.7704 373.16 91.1124C374.236 92.8794 375.18 94.6332 375.969 96.3261C376.136 96.6878 375.979 97.117 375.618 97.2869C375.52 97.3327 375.415 97.3545 375.313 97.3545ZM369.288 87.3541C369.066 87.3541 368.846 87.2517 368.704 87.0578C367.61 85.5588 366.405 84.0228 365.124 82.4912C364.869 82.184 364.908 81.7286 365.214 81.4737C365.521 81.2188 365.974 81.258 366.231 81.5652C367.532 83.1208 368.756 84.6808 369.87 86.2081C370.105 86.5305 370.035 86.9837 369.711 87.219C369.582 87.3127 369.434 87.3585 369.286 87.3585L369.288 87.3541ZM361.799 78.369C361.605 78.369 361.414 78.2928 361.272 78.1403C359.984 76.7611 358.614 75.3645 357.2 73.9832C356.914 73.7043 356.908 73.2468 357.187 72.9614C357.465 72.676 357.923 72.6694 358.208 72.9483C359.638 74.3427 361.024 75.7567 362.327 77.1533C362.599 77.4452 362.584 77.9028 362.292 78.1751C362.152 78.3058 361.976 78.369 361.797 78.369H361.799ZM353.43 70.1901C353.258 70.1901 353.086 70.129 352.946 70.0049C351.53 68.7325 350.046 67.4492 348.543 66.1921C348.236 65.9372 348.194 65.4796 348.451 65.1746C348.706 64.8674 349.164 64.826 349.469 65.0831C350.988 66.3511 352.484 67.6453 353.914 68.9307C354.21 69.1965 354.234 69.6541 353.968 69.9526C353.825 70.1116 353.628 70.1922 353.43 70.1922V70.1901ZM344.451 62.6865C344.296 62.6865 344.139 62.6364 344.006 62.534C342.501 61.3596 340.934 60.1766 339.354 59.0219C339.032 58.7866 338.962 58.3334 339.198 58.0109C339.433 57.6885 339.886 57.6188 340.209 57.8541C341.801 59.0197 343.379 60.2093 344.895 61.3945C345.209 61.6407 345.266 62.0939 345.02 62.4098C344.878 62.5928 344.664 62.6887 344.449 62.6887L344.451 62.6865ZM335.005 55.7734C334.864 55.7734 334.722 55.732 334.596 55.647C333.014 54.5576 331.382 53.4683 329.746 52.4094C329.41 52.1915 329.314 51.7449 329.532 51.4094C329.75 51.0739 330.197 50.9802 330.532 51.1959C332.179 52.2634 333.822 53.3615 335.415 54.4574C335.744 54.684 335.827 55.1328 335.6 55.4618C335.461 55.6666 335.234 55.7756 335.005 55.7756V55.7734ZM325.187 49.4071C325.059 49.4071 324.928 49.3723 324.81 49.3004C323.17 48.296 321.481 47.2938 319.795 46.3199C319.448 46.1194 319.331 45.6793 319.531 45.3329C319.731 44.9865 320.174 44.8688 320.518 45.0693C322.215 46.0497 323.913 47.0584 325.564 48.0672C325.904 48.2764 326.013 48.7208 325.804 49.0607C325.669 49.2829 325.431 49.4071 325.187 49.4071ZM315.053 43.555C314.936 43.555 314.818 43.5267 314.707 43.4679C313.01 42.5441 311.275 41.6247 309.55 40.7401C309.194 40.5571 309.055 40.1214 309.238 39.7662C309.421 39.4111 309.857 39.2717 310.212 39.4547C311.946 40.3458 313.692 41.2696 315.4 42.1999C315.751 42.3916 315.879 42.8295 315.69 43.1803C315.559 43.42 315.31 43.5572 315.053 43.5572V43.555ZM304.645 38.2084C304.538 38.2084 304.431 38.1845 304.331 38.1365C302.59 37.2934 300.812 36.4589 299.049 35.6571C298.686 35.4916 298.527 35.0624 298.69 34.7007C298.856 34.3368 299.285 34.1778 299.646 34.3412C301.42 35.1473 303.207 35.9883 304.959 36.8358C305.318 37.0101 305.468 37.4415 305.294 37.801C305.17 38.0581 304.911 38.2084 304.643 38.2084H304.645ZM293.994 33.3608C293.901 33.3608 293.805 33.3412 293.711 33.3019C291.927 32.5394 290.112 31.7899 288.318 31.0731C287.948 30.9249 287.767 30.5044 287.915 30.1341C288.064 29.7637 288.482 29.5828 288.854 29.731C290.656 30.4522 292.482 31.206 294.278 31.9729C294.644 32.1298 294.816 32.5546 294.659 32.9207C294.541 33.1952 294.276 33.3608 293.994 33.3608ZM283.131 29.0164C283.048 29.0164 282.961 29.0011 282.878 28.9706C281.061 28.293 279.213 27.6285 277.389 26.9967C277.012 26.866 276.812 26.4542 276.942 26.0773C277.073 25.7003 277.485 25.4999 277.862 25.6306C279.699 26.2668 281.555 26.9335 283.383 27.6154C283.758 27.7549 283.948 28.171 283.808 28.5458C283.699 28.8355 283.425 29.0164 283.131 29.0164ZM140.106 25.9836C139.816 25.9836 139.542 25.8071 139.431 25.5217C139.287 25.1491 139.472 24.7308 139.845 24.587C141.662 23.8855 143.516 23.2057 145.362 22.5651C145.739 22.4344 146.15 22.6349 146.281 23.0118C146.412 23.3887 146.211 23.8005 145.834 23.9312C144.006 24.5652 142.165 25.2406 140.365 25.9356C140.28 25.9683 140.191 25.9836 140.106 25.9836ZM272.075 25.1883C272.003 25.1883 271.929 25.1774 271.855 25.1535C270.005 24.563 268.129 23.9857 266.279 23.4432C265.895 23.3299 265.678 22.929 265.789 22.5455C265.902 22.1621 266.303 21.9442 266.686 22.0553C268.549 22.6022 270.436 23.1817 272.297 23.7765C272.678 23.8985 272.888 24.306 272.766 24.6851C272.667 24.9923 272.382 25.1883 272.077 25.1883H272.075ZM151.16 22.1446C150.85 22.1446 150.565 21.9464 150.469 21.6348C150.351 21.2535 150.565 20.8483 150.946 20.7307C152.805 20.1555 154.705 19.6042 156.587 19.0922C156.973 18.9877 157.369 19.2143 157.474 19.5999C157.579 19.9855 157.352 20.3821 156.966 20.4866C155.097 20.9943 153.217 21.5411 151.371 22.112C151.299 22.1338 151.227 22.1446 151.157 22.1446H151.16ZM260.847 21.8941C260.786 21.8941 260.723 21.8854 260.66 21.8701C258.784 21.369 256.881 20.8853 255.008 20.4343C254.62 20.3407 254.38 19.9507 254.474 19.5628C254.567 19.175 254.957 18.9354 255.345 19.0291C257.232 19.4844 259.145 19.9703 261.032 20.4736C261.418 20.576 261.647 20.9725 261.544 21.3581C261.457 21.6806 261.165 21.8941 260.847 21.8941ZM249.475 19.1532C249.425 19.1532 249.373 19.1489 249.323 19.138C247.425 18.7306 245.501 18.3428 243.605 17.9876C243.213 17.9135 242.954 17.5366 243.028 17.1445C243.102 16.7523 243.477 16.493 243.871 16.5671C245.778 16.9266 247.713 17.3144 249.624 17.7262C250.014 17.809 250.262 18.1946 250.179 18.5846C250.107 18.9245 249.807 19.1554 249.473 19.1554L249.475 19.1532ZM162.448 19.0748C162.122 19.0748 161.823 18.8504 161.745 18.5171C161.653 18.1292 161.893 17.7393 162.283 17.6477C164.178 17.2011 166.109 16.7784 168.022 16.395C168.414 16.3165 168.796 16.5693 168.874 16.9614C168.952 17.3536 168.7 17.7349 168.307 17.8133C166.41 18.1946 164.494 18.6129 162.616 19.0552C162.56 19.0683 162.505 19.0748 162.451 19.0748H162.448ZM237.977 16.9919C237.94 16.9919 237.901 16.9898 237.862 16.9832C235.947 16.6738 234.005 16.3884 232.094 16.1313C231.698 16.0791 231.421 15.7152 231.473 15.3187C231.526 14.9221 231.89 14.6455 232.286 14.6977C234.21 14.9548 236.162 15.2446 238.091 15.5562C238.485 15.6193 238.753 15.9897 238.69 16.3841C238.633 16.7392 238.326 16.9919 237.977 16.9919ZM173.916 16.7697C173.569 16.7697 173.262 16.5192 173.203 16.1662C173.138 15.7719 173.404 15.3993 173.798 15.3339C175.716 15.0137 177.668 14.7217 179.607 14.4624C180.006 14.4101 180.365 14.6868 180.42 15.0834C180.472 15.4799 180.195 15.8438 179.799 15.896C177.877 16.1531 175.938 16.4429 174.038 16.761C173.999 16.7675 173.957 16.7719 173.918 16.7719L173.916 16.7697ZM226.384 15.4385C226.357 15.4385 226.331 15.4385 226.305 15.4342C224.377 15.2294 222.425 15.0485 220.501 14.896C220.102 14.8655 219.805 14.5169 219.836 14.1182C219.867 13.7195 220.219 13.4232 220.614 13.4537C222.549 13.6062 224.516 13.787 226.458 13.994C226.854 14.0354 227.142 14.3927 227.1 14.7892C227.061 15.1596 226.747 15.4363 226.384 15.4363V15.4385ZM185.512 15.2228C185.146 15.2228 184.832 14.9461 184.793 14.5736C184.754 14.177 185.041 13.8219 185.44 13.7827C187.373 13.5866 189.342 13.421 191.29 13.2837C191.693 13.2576 192.033 13.5561 192.062 13.9548C192.09 14.3535 191.789 14.6977 191.391 14.7261C189.456 14.8611 187.501 15.0267 185.584 15.2206C185.56 15.2228 185.534 15.225 185.51 15.225L185.512 15.2228ZM214.722 14.5234C214.709 14.5234 214.698 14.5234 214.685 14.5234C212.746 14.4254 210.787 14.3557 208.861 14.3143C208.462 14.3056 208.146 13.9744 208.153 13.5757C208.162 13.177 208.477 12.8567 208.891 12.8676C210.831 12.909 212.805 12.9787 214.757 13.0768C215.156 13.0964 215.463 13.4363 215.443 13.835C215.424 14.2206 215.103 14.5213 214.722 14.5213V14.5234ZM197.182 14.4123C196.796 14.4123 196.476 14.1073 196.461 13.7173C196.446 13.3186 196.757 12.9831 197.156 12.9678C199.095 12.8937 201.071 12.848 203.026 12.8306H203.032C203.429 12.8306 203.751 13.1508 203.756 13.5474C203.76 13.9461 203.438 14.2729 203.039 14.2772C201.1 14.2925 199.139 14.3382 197.213 14.4123C197.204 14.4123 197.193 14.4123 197.184 14.4123H197.182Z" fill="#263773"/>
<path d="M350.776 166.244C350.46 166.244 350.171 166.035 350.081 165.716C349.972 165.333 350.197 164.932 350.58 164.825C351.491 164.568 352.411 164.287 353.313 163.987C353.694 163.86 354.101 164.065 354.228 164.444C354.354 164.823 354.149 165.233 353.77 165.359C352.846 165.666 351.905 165.956 350.975 166.22C350.909 166.237 350.844 166.248 350.779 166.248L350.776 166.244Z" fill="#263773"/>
<path d="M89.0594 55.3358C88.8459 55.3358 88.6367 55.2421 88.4929 55.0635C88.2445 54.7519 88.2946 54.2966 88.6084 54.0482C89.3644 53.4447 90.1249 52.8477 90.8918 52.2551C91.2078 52.0111 91.661 52.0699 91.905 52.3858C92.1491 52.7017 92.0902 53.1549 91.7743 53.3989C91.0139 53.9872 90.26 54.5798 89.5082 55.1768C89.3753 55.2835 89.2163 55.3336 89.0572 55.3336L89.0594 55.3358Z" fill="#263773"/>
<path d="M97.6769 48.8581C97.4503 48.8581 97.2281 48.7514 97.0865 48.5531C96.8555 48.2263 96.9318 47.7753 97.2586 47.5465C98.0474 46.9888 98.8405 46.4354 99.6401 45.8863C99.9691 45.6597 100.42 45.7447 100.645 46.0737C100.871 46.4027 100.786 46.8537 100.457 47.0781C99.6641 47.6206 98.8775 48.1696 98.0931 48.7252C97.9667 48.8145 97.8208 48.8581 97.6769 48.8581Z" fill="#263773"/>
<path d="M53.716 93.2253C53.5765 93.2253 53.4349 93.1839 53.3107 93.0989C52.9795 92.8745 52.8945 92.4257 53.1189 92.0946C53.6637 91.2928 54.2149 90.4975 54.7727 89.7088C55.0037 89.382 55.4547 89.3058 55.7794 89.5345C56.1062 89.7655 56.1825 90.2165 55.9537 90.5411C55.4002 91.3255 54.8533 92.1142 54.313 92.9072C54.1735 93.112 53.9469 93.2231 53.7138 93.2231L53.716 93.2253Z" fill="#263773"/>
<path d="M58.1544 87.0184C58.004 87.0184 57.8515 86.9705 57.7208 86.8746C57.4005 86.6349 57.3373 86.1818 57.577 85.8637C58.1587 85.088 58.7449 84.319 59.3397 83.5564C59.5837 83.2405 60.0391 83.1838 60.3551 83.43C60.671 83.674 60.7277 84.1294 60.4814 84.4453C59.8931 85.2035 59.3092 85.9661 58.734 86.733C58.5923 86.9225 58.3745 87.0228 58.1544 87.0228V87.0184Z" fill="#263773"/>
<path d="M26.2357 171.253C26.2139 171.253 26.1943 171.253 26.1725 171.25C25.7738 171.216 25.4796 170.865 25.5145 170.468C25.5973 169.501 25.6888 168.538 25.789 167.577C25.8304 167.181 26.1899 166.891 26.5821 166.932C26.9787 166.974 27.2685 167.329 27.2271 167.725C27.129 168.677 27.0375 169.632 26.9547 170.592C26.922 170.969 26.6061 171.253 26.2357 171.253Z" fill="#263773"/>
<path d="M27.2968 161.927C27.2642 161.927 27.2293 161.925 27.1944 161.921C26.8001 161.864 26.5233 161.5 26.58 161.104C26.8829 158.956 27.2315 156.79 27.615 154.663C27.6869 154.271 28.0638 154.01 28.4538 154.082C28.846 154.154 29.1075 154.528 29.0378 154.921C28.6565 157.027 28.3122 159.176 28.0115 161.304C27.9614 161.666 27.652 161.925 27.2968 161.925V161.927Z" fill="#263773"/>
<path d="M29.6064 149.147C29.5541 149.147 29.5018 149.141 29.4495 149.13C29.0595 149.042 28.8133 148.657 28.9004 148.267C29.1096 147.319 29.3275 146.376 29.5519 145.439C29.6456 145.051 30.0356 144.811 30.4235 144.905C30.8113 144.999 31.051 145.389 30.9573 145.777C30.735 146.707 30.5193 147.642 30.3123 148.581C30.2382 148.918 29.9397 149.147 29.6064 149.147Z" fill="#263773"/>
<path d="M338.492 153.74C338.342 153.74 338.189 153.692 338.058 153.596C337.738 153.356 337.675 152.903 337.912 152.585L340.154 149.594C340.394 149.273 340.847 149.21 341.165 149.448C341.486 149.687 341.549 150.141 341.311 150.459L339.069 153.45C338.928 153.64 338.71 153.74 338.49 153.74H338.492Z" fill="black"/>
<path d="M333.271 160.712C333.121 160.712 332.968 160.664 332.838 160.568C332.517 160.328 332.454 159.875 332.692 159.557L334.934 156.566C335.173 156.246 335.627 156.182 335.945 156.42C336.265 156.66 336.328 157.113 336.091 157.431L333.849 160.422C333.707 160.612 333.489 160.712 333.269 160.712H333.271Z" fill="black"/>
<path d="M335.012 154.241C334.862 154.241 334.709 154.193 334.579 154.097L331.587 151.855C331.267 151.615 331.204 151.162 331.441 150.844C331.681 150.524 332.134 150.461 332.452 150.698L335.444 152.94C335.764 153.18 335.827 153.633 335.59 153.951C335.448 154.141 335.23 154.241 335.01 154.241H335.012Z" fill="black"/>
<path d="M341.982 159.461C341.832 159.461 341.679 159.413 341.549 159.317L338.557 157.075C338.237 156.836 338.174 156.382 338.411 156.064C338.651 155.744 339.104 155.681 339.422 155.918L342.414 158.16C342.734 158.4 342.797 158.853 342.56 159.171C342.418 159.361 342.2 159.461 341.98 159.461H341.982Z" fill="black"/>
<path d="M8.29931 252.975C7.92672 252.975 7.6086 252.687 7.58027 252.31C6.06595 233.253 7.85481 214.535 12.8989 196.678C13.0079 196.295 13.4066 196.07 13.7901 196.179C14.1736 196.288 14.398 196.687 14.2891 197.07C9.2907 214.762 7.51927 233.309 9.02052 252.195C9.0532 252.593 8.75469 252.942 8.35814 252.972C8.33853 252.972 8.31892 252.975 8.29931 252.975Z" fill="black"/>
<path d="M10.3736 269.137C10.0293 269.137 9.72427 268.89 9.66327 268.54C9.21659 266.021 8.82222 263.465 8.48885 260.938C8.43655 260.541 8.71545 260.18 9.11201 260.127C9.50639 260.077 9.87026 260.354 9.92255 260.751C10.2516 263.256 10.6438 265.792 11.0861 268.289C11.1558 268.681 10.8943 269.058 10.5 269.128C10.4564 269.134 10.415 269.139 10.3736 269.139V269.137Z" fill="black"/>
<path d="M23.2814 279.355C22.9654 279.355 22.6735 279.146 22.5841 278.825C16.2719 256.012 15.1999 233.177 19.3964 210.956C19.4705 210.564 19.8453 210.304 20.2418 210.38C20.634 210.455 20.8933 210.834 20.817 211.226C16.6619 233.227 17.7252 255.842 23.9786 278.442C24.0854 278.828 23.8588 279.224 23.4753 279.331C23.4099 279.348 23.3467 279.357 23.2814 279.357V279.355Z" fill="black"/>
<path d="M55.8982 132.986C65.4922 123.393 65.4922 107.839 55.8982 98.2455C46.3042 88.6522 30.7493 88.6522 21.1553 98.2455C11.5613 107.839 11.5613 123.393 21.1553 132.986C30.7493 142.579 46.3042 142.579 55.8982 132.986Z" fill="white"/>
<path d="M38.5121 140.903C31.9798 140.903 25.8049 138.433 21.0636 133.905C16.1785 129.24 13.4005 122.953 13.2458 116.201C12.9233 102.261 24.0029 90.6573 37.9434 90.3348C44.6915 90.1758 51.1061 92.6617 55.9912 97.3264C60.8762 101.991 63.6543 108.279 63.809 115.031C63.9659 121.783 61.482 128.192 56.817 133.077C52.152 137.962 45.8637 140.74 39.1113 140.894C38.9109 140.899 38.7104 140.901 38.51 140.901L38.5121 140.903ZM38.5426 91.7728C38.3531 91.7728 38.1657 91.7728 37.9761 91.7793C24.8331 92.0843 14.3875 103.024 14.6904 116.166C14.8385 122.532 17.4554 128.46 22.0615 132.857C26.6677 137.254 32.7119 139.594 39.0786 139.448C45.4454 139.3 51.3741 136.683 55.7711 132.077C60.1703 127.471 62.5104 121.428 62.3622 115.061C62.2141 108.695 59.5972 102.767 54.9911 98.37C50.5222 94.104 44.698 91.7728 38.5405 91.7728H38.5426Z" fill="black"/>
<path d="M54.2233 131.311C62.8924 122.643 62.8924 108.589 54.2233 99.9201C45.5543 91.2517 31.4989 91.2517 22.8299 99.9201C14.1608 108.589 14.1608 122.643 22.8299 131.311C31.499 139.98 45.5543 139.98 54.2233 131.311Z" fill="#DCF3EB"/>
<path d="M52.4114 129.5C60.0798 121.832 60.0798 109.4 52.4114 101.732C44.743 94.064 32.3101 94.064 24.6417 101.732C16.9734 109.4 16.9734 121.832 24.6417 129.5C32.3101 137.167 44.743 137.167 52.4114 129.5Z" fill="white"/>
<path d="M38.5208 136.594C27.1753 136.594 17.817 127.5 17.5533 116.101C17.2853 104.536 26.4759 94.9103 38.0414 94.6424C45.0138 94.4811 51.6028 97.7863 55.6468 103.486C55.8778 103.81 55.8015 104.264 55.4747 104.495C55.15 104.726 54.699 104.649 54.4659 104.322C50.6986 99.0151 44.5585 95.9365 38.0719 96.0869C27.3038 96.3352 18.7452 105.299 18.9957 116.066C19.242 126.681 27.9553 135.145 38.5186 135.147C38.6711 135.147 38.8236 135.147 38.9761 135.143C49.7442 134.894 58.3029 125.931 58.0523 115.164C58.0436 114.765 58.3595 114.434 58.7583 114.425C59.1635 114.419 59.4882 114.732 59.4969 115.131C59.7649 126.696 50.5744 136.322 39.0088 136.589C38.8454 136.594 38.6798 136.596 38.5164 136.596L38.5208 136.594Z" fill="black"/>
<path d="M37.2788 127.347L37.2156 124.624C35.2939 124.582 33.4178 124.11 32.3131 123.504L33.0954 120.129C34.3155 120.761 36.0194 121.323 37.8846 121.28C39.5187 121.243 40.6212 120.585 40.5951 119.439C40.5689 118.349 39.6364 117.682 37.4989 117.016C34.4071 116.055 32.2805 114.669 32.2173 111.889C32.1584 109.366 33.8907 107.347 36.9433 106.675L36.8801 103.952L39.6887 103.887L39.7475 106.41C41.6693 106.451 42.9701 106.824 43.9266 107.259L43.1705 110.519C42.4188 110.22 41.0832 109.593 39.0198 109.641C37.1568 109.684 36.5729 110.501 36.5925 111.303C36.6143 112.249 37.6318 112.828 40.0896 113.689C43.5279 114.813 44.942 116.358 45.0008 118.94C45.0596 121.491 43.3035 123.711 40.0199 124.36L40.0874 127.284L37.2788 127.349V127.347Z" fill="#263773"/>
<path d="M79.4326 78.8236C87.2082 71.0485 87.2082 58.4427 79.4326 50.6676C71.657 42.8926 59.0502 42.8926 51.2746 50.6676C43.499 58.4427 43.4991 71.0485 51.2747 78.8236C59.0503 86.5986 71.657 86.5986 79.4326 78.8236Z" fill="white"/>
<path d="M65.3164 85.3779C60.4902 85.3779 55.8601 83.7024 52.1124 80.5694C47.8853 77.0333 45.2881 72.0636 44.8 66.5732C44.312 61.085 45.9897 55.7318 49.526 51.5051C53.0624 47.2784 58.0324 44.6813 63.5232 44.1933C69.0118 43.7052 74.3654 45.3829 78.5902 48.919C82.8173 52.455 85.4145 57.4247 85.9026 62.9151C86.9114 74.2467 78.5118 84.2863 67.1794 85.2951C66.5562 85.3495 65.9331 85.3779 65.3143 85.3779H65.3164ZM65.3862 45.5572C64.8109 45.5572 64.2335 45.5833 63.6518 45.6334C58.5466 46.0866 53.923 48.5028 50.6351 52.4332C47.3472 56.3637 45.7849 61.3399 46.2403 66.4447C46.6935 71.5494 49.1099 76.1727 53.0406 79.4604C56.9713 82.7481 61.9457 84.3103 67.053 83.8549C77.5923 82.9181 85.4014 73.5822 84.4645 63.0437C84.0113 57.9389 81.5949 53.3156 77.6642 50.0279C74.1802 47.1128 69.8747 45.555 65.3862 45.555V45.5572Z" fill="black"/>
<path d="M78.0753 77.4668C85.1012 70.4413 85.1012 59.0508 78.0753 52.0254C71.0493 44.9999 59.658 44.9999 52.6321 52.0254C45.6061 59.0508 45.6061 70.4413 52.6321 77.4668C59.658 84.4923 71.0493 84.4922 78.0753 77.4668Z" fill="#DCF3EB"/>
<path d="M76.6069 75.9986C82.822 69.784 82.822 59.7082 76.6069 53.4936C70.3919 47.279 60.3153 47.279 54.1003 53.4936C47.8853 59.7082 47.8853 69.784 54.1003 75.9986C60.3153 82.2132 70.3919 82.2132 76.6069 75.9986Z" fill="white"/>
<path d="M65.323 81.8857C61.3139 81.8857 57.466 80.4935 54.3545 77.8899C50.8421 74.9529 48.685 70.8221 48.2798 66.262C47.4431 56.8477 54.4199 48.5075 63.8349 47.6709C69.5109 47.1654 75.0583 49.5075 78.6622 53.9369C78.9149 54.2463 78.867 54.7016 78.5576 54.9544C78.2482 55.2071 77.7928 55.1592 77.5401 54.8498C74.239 50.793 69.1666 48.6469 63.9634 49.111C55.3437 49.8779 48.9531 57.5144 49.72 66.1356C50.0926 70.3122 52.0667 74.0923 55.2827 76.7831C58.4988 79.4738 62.5689 80.7506 66.7458 80.378C70.9228 80.0076 74.7031 78.0315 77.3941 74.8157C80.085 71.5999 81.3618 67.53 80.9892 63.3534C80.9544 62.9568 81.2485 62.6039 81.6451 62.569C82.0351 62.5342 82.3946 62.8261 82.4295 63.2248C82.8347 67.7849 81.4403 72.2295 78.5031 75.7416C75.566 79.2538 71.4348 81.4107 66.8744 81.8159C66.3558 81.8617 65.8394 81.8857 65.3252 81.8857H65.323Z" fill="black"/>
<path d="M64.9657 74.2992L64.7696 72.1009C63.2117 72.1684 61.6712 71.8874 60.7452 71.456L61.1984 68.6868C62.2181 69.1335 63.6279 69.4973 65.1313 69.3644C66.4517 69.2467 67.308 68.6585 67.2252 67.7325C67.1468 66.8523 66.3558 66.3643 64.5931 65.9373C62.0416 65.325 60.2484 64.3163 60.0501 62.0722C59.8693 60.0351 61.1613 58.3095 63.5952 57.6036L63.3991 55.4053L65.6673 55.2026L65.8481 57.2398C67.406 57.1722 68.4759 57.4032 69.2733 57.706L68.8354 60.3815C68.2101 60.181 67.0988 59.7431 65.432 59.8913C63.9264 60.0242 63.4993 60.717 63.5559 61.3641C63.6235 62.1288 64.4776 62.5428 66.5105 63.1071C69.3518 63.8348 70.5763 65.0091 70.7615 67.092C70.9446 69.1531 69.6438 71.042 67.0226 71.7414L67.2317 74.1031L64.9635 74.3058L64.9657 74.2992Z" fill="#263773"/>
<path d="M127.154 30.8575C130.803 22.5179 127 12.7995 118.659 9.15086C110.319 5.50219 100.6 9.30492 96.9513 17.6445C93.3023 25.9841 97.1053 35.7025 105.446 39.3511C113.786 42.9998 123.505 39.1971 127.154 30.8575Z" fill="white"/>
<path d="M112.054 41.4529C111.953 41.4529 111.851 41.4529 111.751 41.4507C102.264 41.2851 94.6814 33.4352 94.8448 23.949C95.0082 14.5652 102.695 7.04199 112.043 7.04199C112.143 7.04199 112.245 7.04199 112.346 7.04417C121.833 7.20976 129.415 15.0597 129.252 24.5459C129.088 33.9297 121.401 41.4529 112.051 41.4529H112.054ZM112.045 8.48867C103.48 8.48867 96.4398 15.3778 96.2916 23.9751C96.1413 32.6639 103.088 39.8537 111.777 40.0062C120.464 40.1565 127.657 33.2107 127.809 24.522C127.96 15.8332 121.013 8.64336 112.326 8.49085C112.235 8.49085 112.141 8.48867 112.049 8.48867H112.045Z" fill="black"/>
<path d="M126.885 25.6588C127.662 17.4699 121.653 10.2017 113.464 9.42473C105.275 8.64777 98.0059 14.6563 97.2289 22.8451C96.4519 31.034 102.461 38.3022 110.65 39.0792C118.84 39.8561 126.108 33.8476 126.885 25.6588Z" fill="#DCF3EB"/>
<path d="M124.772 27.6616C126.658 20.6339 122.49 13.4083 115.461 11.5226C108.433 9.6369 101.207 13.8053 99.3212 20.8329C97.4354 27.8606 101.604 35.0863 108.632 36.9719C115.66 38.8576 122.887 34.6892 124.772 27.6616Z" fill="white"/>
<path d="M112.054 38.5616C111.969 38.5616 111.886 38.5616 111.801 38.5595C107.977 38.4941 104.41 36.9428 101.752 34.1911C99.0957 31.4415 97.6686 27.8205 97.7361 23.999C97.8712 16.1926 104.266 9.93311 112.045 9.93311C112.13 9.93311 112.213 9.93311 112.298 9.93311C117.061 10.0159 121.455 12.4517 124.057 16.4475C124.275 16.783 124.179 17.2297 123.846 17.4476C123.51 17.6654 123.064 17.5696 122.846 17.2362C120.508 13.6413 116.555 11.4517 112.274 11.3776C105.168 11.2534 99.3071 16.9268 99.1829 24.0208C99.1241 27.4566 100.405 30.7117 102.793 33.1845C105.181 35.6574 108.389 37.0518 111.827 37.1106C118.945 37.2304 124.794 31.5614 124.918 24.4674C124.924 24.0687 125.242 23.7506 125.652 23.7572C126.051 23.7637 126.369 24.0927 126.362 24.4914C126.227 32.2978 119.832 38.5573 112.054 38.5573V38.5616Z" fill="black"/>
<path d="M110.894 32.0799L110.927 30.2519C109.639 30.1713 108.395 29.8031 107.672 29.3673L108.288 27.1276C109.088 27.5851 110.217 28.0078 111.467 28.0296C112.563 28.0492 113.322 27.6374 113.335 26.8683C113.348 26.1363 112.74 25.6657 111.324 25.1602C109.278 24.4325 107.89 23.4456 107.922 21.5806C107.951 19.8877 109.167 18.5804 111.232 18.2122L111.265 16.3843L113.15 16.417L113.121 18.1098C114.409 18.1904 115.27 18.4737 115.899 18.794L115.305 20.9574C114.808 20.7374 113.93 20.2799 112.546 20.2559C111.295 20.2341 110.881 20.7657 110.873 21.3039C110.862 21.9379 111.529 22.354 113.152 22.9989C115.427 23.8464 116.333 24.9206 116.302 26.6526C116.272 28.3651 115.034 29.8053 112.816 30.1517L112.781 32.1147L110.897 32.082L110.894 32.0799Z" fill="#263773"/>
<path d="M318.235 56.9824H114.333C107.9 56.9824 102.207 62.6471 101.617 69.6343L76.2631 369.491C75.6726 376.478 80.4073 382.143 86.8394 382.143H290.742C297.174 382.143 302.867 376.478 303.458 369.491L328.811 69.6343C329.402 62.6471 324.667 56.9824 318.235 56.9824Z" fill="black"/>
<path d="M290.742 382.867H86.8393C83.7125 382.867 80.8277 381.603 78.7185 379.306C76.385 376.766 75.2258 373.167 75.5417 369.43L100.895 69.5735C101.516 62.2312 107.543 56.2593 114.332 56.2593H318.235C321.362 56.2593 324.246 57.5229 326.356 59.8193C328.689 62.3597 329.846 65.959 329.53 69.6955L304.177 369.552C303.556 376.892 297.529 382.867 290.74 382.867H290.742ZM114.332 57.706C108.277 57.706 102.895 63.0852 102.336 69.6955L76.982 369.552C76.7009 372.886 77.7206 376.086 79.7818 378.328C81.6143 380.322 84.12 381.42 86.8393 381.42H290.742C296.797 381.42 302.179 376.041 302.736 369.43L328.09 69.5735C328.373 66.2379 327.351 63.0395 325.29 60.7976C323.458 58.804 320.952 57.706 318.233 57.706H114.33H114.332Z" fill="black"/>
<path d="M311.585 55.5444H107.682C101.25 55.5444 95.5592 61.2505 94.973 68.29L69.7742 370.358C69.1859 377.398 73.925 383.104 80.3571 383.104H284.259C290.692 383.104 296.383 377.398 296.969 370.358L322.168 68.29C322.754 61.2505 318.017 55.5444 311.585 55.5444Z" fill="#7D87AB"/>
<path d="M274.062 350.412H96.0103L118.921 75.7695H296.973L274.062 350.412Z" fill="white"/>
<path d="M119.126 179.689C118.921 179.689 118.727 179.602 118.59 179.451C118.453 179.299 118.385 179.096 118.407 178.893L123.037 133.441C123.074 133.075 123.382 132.796 123.75 132.791L283.743 131.236C283.948 131.236 284.146 131.321 284.286 131.473C284.425 131.626 284.491 131.831 284.471 132.035L279.592 178.423C279.553 178.789 279.246 179.068 278.876 179.07L119.128 179.693H119.126V179.689ZM124.412 134.232L119.928 178.242L278.222 177.625L282.948 132.689L124.412 134.232Z" fill="#7D87AB"/>
<path d="M122.784 142.644C122.388 142.644 122.063 142.323 122.061 141.925C122.059 141.526 122.381 141.199 122.78 141.197L282.505 140.262H282.51C282.906 140.262 283.231 140.582 283.233 140.981C283.235 141.38 282.913 141.707 282.514 141.709L122.789 142.644H122.784Z" fill="#7D87AB"/>
<path d="M230.373 171.167H125.804L126.821 163.021H231.391L230.373 171.167Z" fill="#DCF3EB"/>
<path d="M231.626 158.783H127.057L128.072 150.635H232.641L231.626 158.783Z" fill="#DCF3EB"/>
<path d="M273.894 158.783H239.252L240.27 150.635H274.912L273.894 158.783Z" fill="#DCF3EB"/>
<path d="M271.842 171.494H237.2L238.215 163.346H272.857L271.842 171.494Z" fill="#DCF3EB"/>
<path d="M265.534 334.468L104.26 334.147C104.055 334.147 103.859 334.058 103.721 333.906C103.584 333.753 103.519 333.548 103.543 333.343L109.968 276.858C110.01 276.496 110.315 276.219 110.679 276.217L270.672 274.661C270.89 274.655 271.071 274.744 271.21 274.895C271.348 275.045 271.417 275.245 271.4 275.448L266.256 333.81C266.223 334.182 265.909 334.47 265.537 334.47L265.534 334.468ZM105.07 332.703L264.874 333.019L269.89 276.113L111.332 277.655L105.07 332.703Z" fill="#7D87AB"/>
<path d="M109.711 286.067C109.315 286.067 108.99 285.747 108.988 285.348C108.986 284.95 109.308 284.623 109.707 284.621L269.433 283.686C269.847 283.673 270.158 284.006 270.16 284.405C270.162 284.804 269.84 285.13 269.441 285.133L109.716 286.067H109.711Z" fill="#7D87AB"/>
<path d="M217.303 314.594H112.734L113.749 306.447H218.318L217.303 314.594Z" fill="#DCF3EB"/>
<path d="M218.554 302.209H113.984L115.002 294.061H219.571L218.554 302.209Z" fill="#DCF3EB"/>
<path d="M260.824 302.209H226.182L227.197 294.061H261.839L260.824 302.209Z" fill="#DCF3EB"/>
<path d="M258.77 314.92H224.127L225.145 306.772H259.787L258.77 314.92Z" fill="#DCF3EB"/>
<path d="M215.769 327.064H111.2L112.215 318.916H216.784L215.769 327.064Z" fill="#DCF3EB"/>
<path d="M257.236 327.389H222.593L223.611 319.24H258.253L257.236 327.389Z" fill="#DCF3EB"/>
<path d="M272.718 262.835H110.825C110.618 262.835 110.422 262.746 110.284 262.591C110.147 262.437 110.084 262.23 110.108 262.025L118.503 192.427C118.547 192.068 118.852 191.795 119.214 191.791L279.207 190.236C279.394 190.231 279.606 190.318 279.745 190.469C279.885 190.619 279.952 190.822 279.935 191.024L273.439 262.177C273.405 262.55 273.093 262.835 272.72 262.835H272.718ZM111.64 261.389H272.058L278.42 191.689L119.861 193.231L111.64 261.389Z" fill="#7D87AB"/>
<path d="M118.246 201.643C117.85 201.643 117.525 201.323 117.523 200.924C117.521 200.525 117.843 200.199 118.242 200.196L277.967 199.262H277.972C278.368 199.262 278.693 199.582 278.695 199.981C278.697 200.379 278.375 200.706 277.976 200.708L118.251 201.643H118.246Z" fill="#7D87AB"/>
<path d="M225.837 230.169H121.268L122.283 222.021H226.853L225.837 230.169Z" fill="#DCF3EB"/>
<path d="M227.088 217.786H122.519L123.534 209.637H228.106L227.088 217.786Z" fill="#DCF3EB"/>
<path d="M269.356 217.786H234.714L235.732 209.637H270.374L269.356 217.786Z" fill="#DCF3EB"/>
<path d="M267.304 230.494H232.661L233.679 222.348H268.319L267.304 230.494Z" fill="#DCF3EB"/>
<path d="M224.303 242.638H119.734L120.749 234.492H225.319L224.303 242.638Z" fill="#DCF3EB"/>
<path d="M265.77 242.965H231.128L232.145 234.817H266.787L265.77 242.965Z" fill="#DCF3EB"/>
<path d="M222.31 255.43H117.74L118.756 247.281H223.325L222.31 255.43Z" fill="#DCF3EB"/>
<path d="M263.776 255.754H229.134L230.152 247.606H264.794L263.776 255.754Z" fill="#DCF3EB"/>
<path d="M259.847 108.921H152.433L153.478 100.553H260.891L259.847 108.921Z" fill="#DCF3EB"/>
<path d="M258.86 122.351H151.448L152.491 113.982H259.906L258.86 122.351Z" fill="#DCF3EB"/>
<path d="M115.856 351.312C115.459 351.312 115.134 350.991 115.132 350.593C115.132 350.194 115.453 349.867 115.851 349.865L204.042 349.384H204.046C204.445 349.384 204.767 349.704 204.769 350.103C204.772 350.501 204.449 350.828 204.05 350.83L115.86 351.312H115.856Z" fill="black"/>
<path d="M108.8 197.822C108.781 197.822 108.761 197.822 108.739 197.82C108.341 197.787 108.046 197.436 108.079 197.04L118.2 75.7107C118.231 75.3359 118.544 75.0483 118.921 75.0483H296.973C297.176 75.0483 297.37 75.1333 297.507 75.2815C297.645 75.4296 297.712 75.6301 297.695 75.8327L289.583 170.429C289.548 170.828 289.19 171.124 288.8 171.087C288.404 171.052 288.108 170.703 288.142 170.305L296.187 76.495H119.588L109.522 197.162C109.491 197.539 109.173 197.824 108.803 197.824L108.8 197.822Z" fill="black"/>
<path d="M284.262 383.827L128.384 383.596C127.985 383.596 127.661 383.272 127.663 382.873C127.663 382.474 127.988 382.152 128.386 382.152L284.262 382.383C290.317 382.383 295.694 376.962 296.25 370.299L321.449 68.2312C321.73 64.8519 320.697 61.6165 318.616 59.355C316.786 57.3658 314.289 56.2699 311.587 56.2699H107.682C105.619 56.2699 103.342 56.9105 100.913 58.172C98.091 59.6382 96.2477 62.4248 95.9797 65.621L89.2731 146.014C89.2404 146.413 88.8917 146.707 88.493 146.674C88.0943 146.642 87.8001 146.291 87.8328 145.894L94.5394 65.5012C94.8466 61.8061 96.982 58.5859 100.246 56.8887C102.882 55.5183 105.384 54.8232 107.682 54.8232H311.585C314.696 54.8232 317.57 56.0847 319.68 58.3746C322.035 60.9346 323.205 64.5709 322.889 68.351L297.69 370.419C297.074 377.812 291.049 383.827 284.259 383.827H284.262Z" fill="black"/>
<path d="M267.341 91.7377H151.644C146.927 91.7377 143.451 87.5524 143.883 82.391L145.012 68.848C145.992 57.0915 155.496 47.5596 166.24 47.5596H260.113C270.858 47.5596 278.771 57.0915 277.791 68.848L276.662 82.391C276.231 87.5524 272.058 91.7377 267.341 91.7377Z" fill="black"/>
<path d="M267.341 92.461H151.644C149.308 92.461 147.149 91.5133 145.567 89.7943C143.804 87.877 142.926 85.1579 143.164 82.3321L144.292 68.7891C145.303 56.6863 155.148 46.8384 166.242 46.8384H260.115C265.175 46.8384 269.851 48.8907 273.278 52.6164C277.122 56.793 279.028 62.7322 278.514 68.9111L277.383 82.4541C276.923 87.9729 272.417 92.4632 267.343 92.4632L267.341 92.461ZM166.24 48.2829C155.882 48.2829 146.68 57.536 145.733 68.9089L144.604 82.4519C144.401 84.8769 145.14 87.195 146.63 88.816C147.935 90.2344 149.716 91.0165 151.644 91.0165H267.341C271.683 91.0165 275.542 87.121 275.941 82.3321L277.072 68.7891C277.553 63.0111 275.784 57.4728 272.213 53.5946C269.062 50.1697 264.765 48.2851 260.115 48.2851H166.242L166.24 48.2829Z" fill="black"/>
<path d="M264.465 91.7377H148.768C144.051 91.7377 140.575 87.5524 141.007 82.391L142.135 68.848C143.116 57.0915 152.62 47.5596 163.364 47.5596H257.237C267.981 47.5596 275.895 57.0915 274.915 68.848L273.786 82.391C273.354 87.5524 269.182 91.7377 264.465 91.7377Z" fill="#7D87AB"/>
<path d="M264.464 92.461H148.768C146.432 92.461 144.273 91.5133 142.691 89.7943C140.928 87.877 140.05 85.1579 140.287 82.3321L141.416 68.7891C142.425 56.6863 152.271 46.8384 163.366 46.8384H257.239C262.299 46.8384 266.975 48.8907 270.402 52.6164C274.245 56.793 276.152 62.7322 275.638 68.9111L274.507 82.4541C274.047 87.9729 269.541 92.4632 264.467 92.4632L264.464 92.461ZM163.364 48.2829C153.003 48.2829 143.804 57.536 142.856 68.9089L141.728 82.4519C141.525 84.8769 142.264 87.195 143.754 88.816C145.059 90.2344 146.839 91.0165 148.768 91.0165H264.464C268.807 91.0165 272.666 87.121 273.065 82.3321L274.195 68.7891C274.677 63.0111 272.908 57.4728 269.336 53.5946C266.186 50.1697 261.889 48.2851 257.239 48.2851H163.366L163.364 48.2829Z" fill="black"/>
<path d="M216.069 0.723145C203.981 0.723145 193.289 11.4469 192.184 24.6739L189.068 62.0218C188.718 66.2333 191.552 69.6473 195.4 69.6473H225.236C229.084 69.6473 232.489 66.2333 232.842 62.0218L235.958 24.6739C237.061 11.4469 228.158 0.723145 216.069 0.723145ZM213.893 26.8026C210.132 26.8026 207.362 23.4669 207.705 19.3513C208.049 15.2357 211.374 11.9 215.135 11.9C218.895 11.9 221.665 15.2357 221.323 19.3513C220.978 23.4669 217.653 26.8026 213.893 26.8026Z" fill="black"/>
<path d="M225.236 70.3731H195.4C193.457 70.3731 191.661 69.5844 190.343 68.1529C188.879 66.5624 188.151 64.3053 188.347 61.9631L191.463 24.6153C192.596 11.0418 203.634 0 216.069 0C221.737 0 226.972 2.29856 230.812 6.47084C235.117 11.1508 237.257 17.8068 236.677 24.7351L233.561 62.083C233.18 66.654 229.445 70.3731 225.236 70.3731ZM216.069 1.44668C204.366 1.44668 193.975 11.8937 192.906 24.7351L189.79 62.083C189.628 64.0242 190.219 65.8805 191.409 67.1747C192.448 68.3054 193.866 68.9264 195.403 68.9264H225.238C228.713 68.9264 231.803 65.8021 232.123 61.9631L235.239 24.6153C235.784 18.09 233.784 11.8327 229.751 7.45126C226.188 3.57966 221.331 1.44668 216.071 1.44668H216.069ZM213.893 27.5261C211.988 27.5261 210.23 26.7548 208.938 25.3517C207.504 23.7939 206.792 21.5847 206.983 19.2905C207.356 14.8154 211.012 11.1769 215.135 11.1769C217.039 11.1769 218.797 11.9482 220.089 13.3513C221.523 14.9091 222.236 17.1183 222.044 19.4125C221.671 23.8876 218.015 27.5261 213.893 27.5261ZM215.137 12.6236C211.749 12.6236 208.74 15.6694 208.426 19.4125C208.267 21.3036 208.842 23.112 210.003 24.3735C211.016 25.4737 212.398 26.0816 213.893 26.0816C217.281 26.0816 220.29 23.0357 220.604 19.2927C220.763 17.4015 220.187 15.5932 219.026 14.3317C218.013 13.2314 216.631 12.6236 215.137 12.6236Z" fill="black"/>
<path d="M214.209 0.723145C202.12 0.723145 191.428 11.4469 190.324 24.6739L187.208 62.0218C186.857 66.2333 189.692 69.6473 193.54 69.6473H223.375C227.223 69.6473 230.629 66.2333 230.982 62.0218L234.098 24.6739C235.2 11.4469 226.297 0.723145 214.209 0.723145ZM212.032 26.8026C208.271 26.8026 205.502 23.4669 205.844 19.3513C206.188 15.2357 209.513 11.9 213.274 11.9C217.035 11.9 219.804 15.2357 219.462 19.3513C219.118 23.4669 215.793 26.8026 212.032 26.8026Z" fill="#7D87AB"/>
<path d="M223.375 70.3731H193.54C191.596 70.3731 189.801 69.5844 188.483 68.1529C187.018 66.5624 186.291 64.3053 186.487 61.9631L189.602 24.6153C190.735 11.0418 201.772 0 214.209 0C219.876 0 225.112 2.29856 228.951 6.47084C233.256 11.1508 235.396 17.8068 234.817 24.7351L231.701 62.083C231.319 66.654 227.585 70.3731 223.375 70.3731ZM214.209 1.44668C202.508 1.44668 192.115 11.8937 191.045 24.7351L187.929 62.083C187.768 64.0242 188.358 65.8805 189.548 67.1747C190.587 68.3054 192.006 68.9264 193.542 68.9264H223.377C226.853 68.9264 229.942 65.8021 230.263 61.9631L233.378 24.6153C233.923 18.09 231.923 11.8327 227.89 7.45126C224.327 3.57966 219.471 1.44668 214.211 1.44668H214.209ZM212.032 27.5261C210.128 27.5261 208.369 26.7548 207.079 25.3517C205.646 23.7939 204.933 21.5847 205.125 19.2905C205.497 14.8154 209.154 11.1769 213.276 11.1769C215.18 11.1769 216.939 11.9482 218.229 13.3513C219.662 14.9091 220.375 17.1183 220.183 19.4125C219.808 23.8876 216.152 27.5261 212.032 27.5261ZM213.276 12.6236C209.888 12.6236 206.879 15.6694 206.565 19.4125C206.406 21.3036 206.981 23.112 208.143 24.3735C209.156 25.4737 210.537 26.0816 212.032 26.0816C215.42 26.0816 218.429 23.0357 218.743 19.2927C218.9 17.4015 218.325 15.5932 217.165 14.3317C216.152 13.2314 214.771 12.6258 213.276 12.6258V12.6236Z" fill="black"/>
<path d="M366.512 177.894H237.524C232.868 177.894 229.092 181.669 229.092 186.325V234.177C229.092 234.331 229.088 234.488 229.079 234.643L220.446 390.455C220.178 395.287 224.026 399.353 228.866 399.353H357.83C362.305 399.353 366 395.856 366.249 391.388L374.932 234.904C374.94 234.75 374.945 234.593 374.945 234.438V186.325C374.945 181.669 371.169 177.894 366.512 177.894Z" fill="black"/>
<path d="M358.139 178.617H226.564C222.621 178.617 219.424 181.813 219.424 185.756V234.285L210.785 391.076C210.56 395.167 213.816 398.608 217.914 398.608H349.469C353.258 398.608 356.389 395.647 356.598 391.862L365.279 234.706V185.756C365.279 181.813 362.082 178.617 358.139 178.617Z" fill="#263773"/>
<path d="M349.469 399.331H217.915C215.731 399.331 213.705 398.457 212.204 396.873C210.705 395.289 209.944 393.215 210.064 391.037L218.701 234.246V185.756C218.701 181.421 222.227 177.896 226.563 177.896H358.137C362.473 177.896 365.998 181.423 365.998 185.756V234.706L357.315 391.902C357.084 396.067 353.637 399.329 349.465 399.329L349.469 399.331ZM226.565 179.34C223.026 179.34 220.148 182.218 220.148 185.756V234.285L211.509 391.117C211.411 392.895 212.032 394.588 213.256 395.88C214.481 397.174 216.134 397.886 217.917 397.886H349.471C352.877 397.886 355.69 395.224 355.877 391.825L364.558 234.669V185.759C364.558 182.22 361.68 179.342 358.141 179.342H226.567L226.565 179.34Z" fill="black"/>
<path d="M357.365 235.229H227.098C226.7 235.229 226.375 234.905 226.375 234.506C226.375 234.107 226.7 233.783 227.098 233.783H357.365C357.764 233.783 358.089 234.107 358.089 234.506C358.089 234.905 357.764 235.229 357.365 235.229Z" fill="black"/>
<path d="M344.66 192.226H240.043C236.929 192.226 234.404 194.75 234.404 197.864V215.457C234.404 218.571 236.929 221.096 240.043 221.096H344.66C347.774 221.096 350.299 218.571 350.299 215.457V197.864C350.299 194.75 347.774 192.226 344.66 192.226Z" fill="#7D87AB"/>
<path d="M297.906 200.511H336.091C337.829 200.511 339.239 201.923 339.239 203.659V209.661C339.239 211.4 337.827 212.81 336.091 212.81H297.906C296.167 212.81 294.757 211.398 294.757 209.661V203.659C294.757 201.92 296.169 200.511 297.906 200.511Z" fill="#DCF3EB"/>
<path d="M283.798 200.511H265.63C263.891 200.511 262.482 201.92 262.482 203.659V209.661C262.482 211.4 263.891 212.81 265.63 212.81H283.798C285.537 212.81 286.946 211.4 286.946 209.661V203.659C286.946 201.92 285.537 200.511 283.798 200.511Z" fill="#DCF3EB"/>
<path d="M281.254 354.432L282.295 336.843C282.419 334.732 280.742 332.954 278.628 332.954H260.195C258.251 332.954 256.643 334.468 256.528 336.41L255.486 353.998C255.362 356.11 257.04 357.888 259.153 357.888H277.587C279.53 357.888 281.138 356.373 281.254 354.432Z" fill="#DCF3EB"/>
<path d="M315.489 354.432L316.53 336.843C316.654 334.732 314.977 332.954 312.863 332.954H294.43C292.486 332.954 290.878 334.468 290.763 336.41L289.721 353.998C289.597 356.11 291.275 357.888 293.388 357.888H311.822C313.765 357.888 315.373 356.373 315.489 354.432Z" fill="#DCF3EB"/>
<path d="M279.461 387.037L280.511 368.969C280.633 366.86 278.957 365.082 276.844 365.082H258.41C256.465 365.082 254.857 366.598 254.743 368.542L253.693 386.61C253.571 388.719 255.247 390.497 257.36 390.497H275.794C277.739 390.497 279.347 388.98 279.461 387.037Z" fill="#DCF3EB"/>
<path d="M313.695 387.037L314.746 368.969C314.868 366.86 313.192 365.082 311.079 365.082H292.645C290.699 365.082 289.091 366.598 288.978 368.542L287.928 386.61C287.806 388.719 289.481 390.497 291.595 390.497H310.028C311.974 390.497 313.582 388.98 313.695 387.037Z" fill="#DCF3EB"/>
<path d="M248.808 321.825L249.85 304.236C249.974 302.125 248.296 300.347 246.183 300.347H227.749C225.806 300.347 224.198 301.861 224.082 303.803L223.041 321.392C222.916 323.503 224.594 325.281 226.708 325.281H245.141C247.085 325.281 248.693 323.766 248.808 321.825Z" fill="#DCF3EB"/>
<path d="M283.043 321.825L284.084 304.236C284.209 302.125 282.531 300.347 280.417 300.347H261.984C260.04 300.347 258.432 301.861 258.317 303.803L257.275 321.392C257.151 323.503 258.829 325.281 260.942 325.281H279.376C281.319 325.281 282.927 323.766 283.043 321.825Z" fill="#DCF3EB"/>
<path d="M317.279 321.825L318.321 304.236C318.445 302.125 316.767 300.347 314.654 300.347H296.221C294.277 300.347 292.669 301.861 292.553 303.803L291.512 321.392C291.388 323.503 293.066 325.281 295.179 325.281H313.612C315.556 325.281 317.164 323.766 317.279 321.825Z" fill="#DCF3EB"/>
<path d="M351.514 321.825L352.556 304.236C352.68 302.125 351.002 300.347 348.889 300.347H330.455C328.512 300.347 326.904 301.861 326.788 303.803L325.747 321.392C325.623 323.503 327.3 325.281 329.414 325.281H347.847C349.791 325.281 351.399 323.766 351.514 321.825Z" fill="#DCF3EB"/>
<path d="M250.603 289.216L251.645 271.627C251.769 269.516 250.091 267.738 247.978 267.738H229.544C227.601 267.738 225.993 269.252 225.877 271.194L224.836 288.783C224.712 290.894 226.389 292.672 228.503 292.672H246.936C248.88 292.672 250.488 291.157 250.603 289.216Z" fill="#DCF3EB"/>
<path d="M284.84 289.216L285.882 271.627C286.006 269.516 284.328 267.738 282.215 267.738H263.782C261.838 267.738 260.23 269.252 260.114 271.194L259.073 288.783C258.949 290.894 260.626 292.672 262.74 292.672H281.173C283.117 292.672 284.725 291.157 284.84 289.216Z" fill="#DCF3EB"/>
<path d="M319.075 289.216L320.116 271.627C320.241 269.516 318.563 267.738 316.449 267.738H298.016C296.072 267.738 294.464 269.252 294.349 271.194L293.307 288.783C293.183 290.894 294.861 292.672 296.974 292.672H315.408C317.351 292.672 318.959 291.157 319.075 289.216Z" fill="#DCF3EB"/>
<path d="M353.312 289.216L354.353 271.627C354.478 269.516 352.8 267.738 350.686 267.738H332.253C330.309 267.738 328.701 269.252 328.586 271.194L327.544 288.783C327.42 290.894 329.098 292.672 331.211 292.672H349.645C351.588 292.672 353.196 291.157 353.312 289.216Z" fill="#DCF3EB"/>
<path d="M247.017 354.432L248.059 336.843C248.183 334.732 246.505 332.954 244.392 332.954H225.958C224.015 332.954 222.407 334.468 222.291 336.41L221.25 353.998C221.125 356.11 222.803 357.888 224.917 357.888H243.35C245.294 357.888 246.902 356.373 247.017 354.432Z" fill="#DCF3EB"/>
<path d="M245.224 387.037L246.274 368.969C246.396 366.86 244.721 365.082 242.607 365.082H224.174C222.228 365.082 220.62 366.598 220.507 368.542L219.456 386.61C219.334 388.719 221.01 390.497 223.123 390.497H241.557C243.503 390.497 245.111 388.98 245.224 387.037Z" fill="#DCF3EB"/>
<path d="M347.928 386.974L350.778 336.61C350.898 334.503 349.22 332.73 347.111 332.73H328.675C326.727 332.73 325.117 334.25 325.008 336.196L322.158 386.56C322.038 388.667 323.716 390.44 325.825 390.44H344.261C346.209 390.44 347.819 388.919 347.928 386.976V386.974Z" fill="#263773"/>
<path d="M227.43 245.206L227.042 251.594C226.952 253.066 228.123 254.308 229.598 254.308H250.26C251.613 254.308 252.733 253.254 252.816 251.903L253.204 245.515C253.293 244.042 252.123 242.8 250.648 242.8H229.985C228.632 242.8 227.512 243.855 227.43 245.206Z" fill="#DCF3EB"/>
<path d="M261.666 245.206L261.278 251.594C261.189 253.066 262.359 254.308 263.834 254.308H284.497C285.85 254.308 286.97 253.254 287.052 251.903L287.44 245.515C287.53 244.042 286.36 242.8 284.884 242.8H264.222C262.869 242.8 261.749 243.855 261.666 245.206Z" fill="#DCF3EB"/>
<path d="M295.901 245.206L295.513 251.594C295.424 253.066 296.594 254.308 298.069 254.308H318.732C320.085 254.308 321.205 253.254 321.287 251.903L321.675 245.515C321.765 244.042 320.595 242.8 319.119 242.8H298.457C297.104 242.8 295.984 243.855 295.901 245.206Z" fill="#DCF3EB"/>
<path d="M330.138 245.169L329.75 251.546C329.661 253.018 330.831 254.26 332.306 254.26H352.968C354.321 254.26 355.441 253.206 355.524 251.855L355.912 245.478C356.001 244.005 354.831 242.763 353.356 242.763H332.694C331.341 242.763 330.221 243.818 330.138 245.169Z" fill="#263773"/>
<path d="M39.0671 239.277C39.0671 239.277 36.7401 247.253 71.4563 249.194C106.173 251.136 100.364 241.275 100.364 241.275L63.9173 230.658L39.0671 239.277Z" fill="#7D87AB"/>
<path d="M73.7814 364.332L73.3412 380.714L67.5541 381.339L64.6932 363.711L73.7814 364.332Z" fill="white"/>
<path d="M67.554 382.062C67.2032 382.062 66.8982 381.807 66.8415 381.455L63.9785 363.826C63.9436 363.609 64.009 363.386 64.1572 363.223C64.3053 363.059 64.521 362.975 64.7411 362.99L73.8292 363.613C74.2149 363.639 74.5134 363.966 74.5025 364.354L74.0624 380.733C74.0537 381.095 73.7769 381.394 73.4174 381.433L67.6325 382.058C67.6063 382.06 67.5802 382.062 67.554 382.062ZM65.5516 364.493L68.1576 380.546L72.6352 380.062L73.0405 365.007L65.5516 364.495V364.493Z" fill="black"/>
<path d="M106.613 369.711L107.537 382.757L99.8912 383.383L97.161 369.711H106.613Z" fill="white"/>
<path d="M99.8887 384.106C99.5466 384.106 99.2481 383.864 99.1806 383.524L96.4504 369.853C96.409 369.641 96.4635 369.421 96.6008 369.254C96.738 369.086 96.9429 368.99 97.1586 368.99H106.611C106.99 368.99 107.306 369.284 107.332 369.661L108.256 382.707C108.284 383.102 107.988 383.446 107.593 383.479L99.9475 384.104C99.9279 384.104 99.9083 384.106 99.8887 384.106ZM98.041 370.434L100.473 382.611L106.763 382.097L105.937 370.434H98.041Z" fill="black"/>
<path d="M97.847 389.004C97.3176 388.651 96.9951 388.056 96.9777 387.42C96.9276 385.505 96.921 381.428 97.6945 379.894C98.7186 377.862 102.946 380.696 102.946 380.696C102.946 380.696 105.419 377.267 106.868 376.546C107.617 376.173 112.005 379.093 116.429 383.075C121.277 387.437 123.464 388.829 124.508 392.592C124.998 394.357 123.702 396.133 121.874 396.263C117.422 396.581 108.439 396.05 97.847 389.004Z" fill="#7D87AB"/>
<path d="M119.915 397.052C114.975 397.052 106.815 395.836 97.4463 389.603C96.7229 389.122 96.2784 388.311 96.2544 387.435C96.1825 384.705 96.2631 381.123 97.0475 379.566C97.3155 379.032 97.7644 378.67 98.3462 378.518C99.7668 378.145 101.765 379.145 102.761 379.727C103.558 378.679 105.303 376.513 106.545 375.895C108.447 374.945 116.566 382.224 116.91 382.533C117.673 383.219 118.37 383.832 119.006 384.392C122.397 387.374 124.266 389.017 125.203 392.392C125.491 393.429 125.297 394.534 124.669 395.425C124.029 396.333 123.029 396.9 121.926 396.978C121.333 397.02 120.662 397.048 119.917 397.048L119.915 397.052ZM98.2459 388.4C108.67 395.335 117.49 395.85 121.821 395.54C122.49 395.492 123.098 395.148 123.486 394.595C123.863 394.061 123.981 393.401 123.809 392.782C122.987 389.821 121.44 388.461 118.05 385.479C117.409 384.914 116.708 384.3 115.941 383.609C111.472 379.587 107.903 377.385 107.092 377.241C106.131 377.799 104.414 379.888 103.528 381.115L103.12 381.681L102.541 381.293C101.551 380.633 99.6382 379.675 98.7122 379.916C98.5314 379.964 98.4202 380.054 98.3374 380.217C97.845 381.193 97.6075 383.877 97.699 387.398C97.7099 387.803 97.9147 388.178 98.2459 388.398V388.4Z" fill="black"/>
<path d="M117.703 393.56C113.032 393.56 105.534 392.425 98.137 386.522C97.8254 386.274 97.7731 385.819 98.0237 385.507C98.2721 385.196 98.7275 385.143 99.0391 385.394C110.256 394.344 121.972 391.743 122.09 391.714C122.477 391.623 122.867 391.865 122.959 392.255C123.05 392.642 122.809 393.032 122.419 393.124C122.231 393.168 120.46 393.562 117.706 393.562L117.703 393.56Z" fill="black"/>
<path d="M76.0669 384.696L75.9819 375.729C75.9819 375.729 74.1843 373.007 71.7178 375.219C71.7178 375.219 69.4387 372.023 65.2073 376.008C65.2073 376.008 59.2524 387.106 56.6181 393.708C55.9121 395.475 57.1737 397.411 59.0759 397.455C61.8082 397.518 65.3424 397.372 66.8828 396.331C69.2883 394.703 73.4064 389.577 75.2018 387.267C75.7727 386.533 76.0777 385.629 76.069 384.699L76.0669 384.696Z" fill="#7D87AB"/>
<path d="M60.161 398.189C59.8037 398.189 59.4355 398.185 59.0563 398.176C57.932 398.15 56.8905 397.573 56.2696 396.634C55.6442 395.686 55.5222 394.492 55.9427 393.438C58.5639 386.875 64.5079 375.777 64.5667 375.663L64.6234 375.559L64.7084 375.478C66.4036 373.881 68.0464 373.147 69.5891 373.299C70.5979 373.398 71.33 373.862 71.781 374.247C72.511 373.753 73.2671 373.554 74.0297 373.65C75.5919 373.851 76.5441 375.267 76.5833 375.326L76.701 375.504L76.7881 384.686C76.799 385.775 76.4373 386.847 75.7684 387.705C73.6375 390.446 69.7046 395.289 67.2838 396.926C66.044 397.762 63.6516 398.187 60.1589 398.187L60.161 398.189ZM65.7891 376.454C65.1768 377.602 59.7449 387.827 57.2893 393.976C57.0409 394.601 57.1084 395.281 57.4788 395.841C57.8427 396.394 58.431 396.719 59.0934 396.734C62.7757 396.819 65.3969 396.464 66.4776 395.734C68.8156 394.152 72.9598 388.978 74.631 386.825C75.0995 386.224 75.3522 385.47 75.3457 384.705L75.2629 375.977C75.0407 375.709 74.5156 375.173 73.8401 375.088C73.3215 375.023 72.7681 375.249 72.2016 375.759L71.6002 376.3L71.1317 375.642C71.1121 375.613 70.5238 374.84 69.43 374.742C68.3646 374.648 67.1073 375.241 65.7891 376.456V376.454Z" fill="black"/>
<path d="M71.7202 380.777C71.3214 380.777 70.9968 380.455 70.9968 380.054V375.219C70.9946 374.82 71.3171 374.496 71.718 374.496C72.1167 374.496 72.4414 374.818 72.4414 375.219V380.054C72.4436 380.453 72.1211 380.777 71.7202 380.777Z" fill="black"/>
<path d="M108.933 370.452C108.933 370.452 111.114 337.518 107.534 307.894C103.954 278.27 90.6392 235.968 90.6392 235.968C90.6392 235.968 76.3131 235.318 65.8849 236.719C55.4568 238.12 51.3299 236.68 51.3299 236.68C51.3299 236.68 43.5448 245.593 44.181 262.35C44.8173 279.107 62.9826 349.791 62.2941 366.38C62.2941 366.38 68.4037 369.45 76.3152 367.925L73.036 272.664C73.036 272.664 79.8232 292.275 83.0066 305.709C85.6038 316.661 90.1076 323.747 90.1076 323.747C90.1076 323.747 89.9159 349.207 95.7596 370.337C95.7596 370.337 102.662 372.496 108.931 370.454L108.933 370.452Z" fill="black"/>
<path d="M97.4789 335.394C97.248 335.394 97.0236 335.285 96.8819 335.08L91.8792 327.801C91.6526 327.472 91.7376 327.021 92.0666 326.797C92.3956 326.57 92.8466 326.655 93.071 326.984L98.0738 334.263C98.3004 334.592 98.2154 335.043 97.8864 335.268C97.7622 335.353 97.6184 335.394 97.4768 335.394H97.4789Z" fill="white"/>
<path d="M63.8391 317.694C62.0524 317.694 59.782 317.345 57.8842 315.938C57.5639 315.7 57.4964 315.247 57.7339 314.927C57.9714 314.607 58.4246 314.539 58.7449 314.777C61.8824 317.104 66.4712 315.968 66.5169 315.958C66.9048 315.86 67.297 316.093 67.395 316.48C67.4931 316.868 67.2599 317.26 66.8721 317.358C66.7675 317.385 65.5168 317.694 63.8369 317.694H63.8391Z" fill="white"/>
<path d="M87.6324 208.892C87.6324 208.892 95.6682 226.965 108.77 230.658C121.871 234.351 130.997 223.193 130.938 211.677L126.484 210.199C126.484 210.199 121.913 222.002 111.72 218.932C101.525 215.86 96.7947 191.854 96.7947 191.854L87.6324 208.894V208.892Z" fill="white"/>
<path d="M113.803 232.109C112.202 232.109 110.458 231.884 108.572 231.353C95.2956 227.612 87.3034 209.936 86.97 209.186C86.8785 208.981 86.8872 208.746 86.994 208.55L96.1562 191.51C96.3 191.242 96.6007 191.092 96.9014 191.138C97.2043 191.183 97.444 191.412 97.5028 191.713C97.5485 191.948 102.266 215.328 111.927 218.239C121.372 221.084 125.632 210.395 125.809 209.938C125.948 209.578 126.345 209.391 126.711 209.513L131.164 210.99C131.459 211.088 131.659 211.363 131.659 211.672C131.694 218.444 128.65 224.982 123.719 228.736C121.512 230.416 118.196 232.109 113.803 232.109ZM88.4386 208.916C89.5825 211.323 97.2849 226.67 108.964 229.963C115.455 231.79 120.093 229.679 122.843 227.588C127.297 224.198 130.09 218.339 130.21 212.199L126.879 211.095C125.861 213.249 122.044 220.167 115.01 220.167C113.921 220.167 112.755 220.001 111.511 219.627C102.645 216.956 97.8863 199.774 96.507 193.915L88.4386 208.918V208.916Z" fill="black"/>
<path d="M39.0652 191.454C39.0652 191.454 47.1205 180.939 69.8834 182.904C97.0628 185.251 99.1349 190.619 99.1349 190.619L92.0405 204.995L100.366 241.275C100.366 241.275 94.6769 245.985 81.3508 243.34C68.0248 240.695 45.1247 237.449 39.0695 239.277L47.5106 204.657L39.0652 191.454Z" fill="#263773"/>
<path d="M89.0661 244.874C86.8044 244.874 84.1941 244.643 81.2091 244.048C67.7174 241.371 45.0613 238.22 39.2764 239.967C39.028 240.041 38.7578 239.978 38.5704 239.8C38.383 239.621 38.3046 239.355 38.3656 239.105L46.7347 204.785L38.4571 191.841C38.2937 191.584 38.3068 191.253 38.492 191.011C38.8319 190.569 47.0528 180.205 69.9464 182.181C96.8012 184.499 99.5814 189.763 99.8102 190.355C99.8821 190.545 99.8734 190.754 99.7841 190.935L92.8029 205.079L101.072 241.109C101.133 241.375 101.039 241.654 100.828 241.828C100.638 241.985 97.0365 244.87 89.0683 244.872L89.0661 244.874ZM44.6168 238.031C54.0035 238.031 70.3931 240.427 81.4901 242.63C92.4652 244.809 98.139 241.859 99.5509 240.959L91.3344 205.153C91.2973 204.992 91.3169 204.82 91.391 204.672L98.3024 190.669C97.4548 189.7 92.5829 185.586 69.82 183.621C50.1643 181.926 41.6666 189.7 39.9649 191.517L48.1183 204.265C48.2251 204.43 48.2578 204.633 48.212 204.824L40.0455 238.316C41.2483 238.118 42.8018 238.028 44.6168 238.028V238.031Z" fill="black"/>
<path d="M126.476 225.446H91.4587L114.424 183.869H149.441L126.476 225.446Z" fill="black"/>
<path d="M126.617 225.686H91.0513L114.285 183.627H149.851L126.617 225.686ZM91.8662 225.204H126.332L149.032 184.109H114.566L91.8662 225.204Z" fill="black"/>
<path d="M127.279 224.135C127.279 224.135 126.621 220.688 127.279 218.387C127.937 216.086 132.016 209.245 133.184 207.814C134.35 206.382 135.339 221.668 127.279 224.135Z" fill="white"/>
<path d="M127.28 224.858C127.149 224.858 127.02 224.823 126.907 224.753C126.731 224.646 126.609 224.472 126.569 224.27C126.541 224.121 125.887 220.624 126.585 218.186C127.271 215.788 131.343 208.927 132.622 207.356C132.938 206.968 133.352 206.944 133.635 207.049C134.599 207.408 134.734 209.774 134.675 211.696C134.516 217.027 132.544 223.276 127.489 224.823C127.419 224.845 127.349 224.856 127.277 224.856L127.28 224.858ZM133.126 209.127C131.555 211.452 128.509 216.722 127.977 218.585C127.563 220.032 127.72 222.021 127.861 223.141C129.679 222.304 131.082 220.605 132.036 218.078C133.339 214.624 133.357 210.842 133.126 209.127Z" fill="black"/>
<path d="M54.0015 215.204L80.9631 202.21L94.9711 204.689C94.9711 204.689 93.9906 206.147 91.9991 205.807C90.0076 205.467 87.3603 206.036 85.6934 207.87C84.0266 209.705 81.2136 208.537 81.2136 208.537C81.2136 208.537 65.9636 228.13 52.2693 230.658C41.1374 232.712 39.9106 192.783 39.9106 192.783L53.3021 204.659L53.9972 215.206L54.0015 215.204Z" fill="white"/>
<path d="M51.4499 231.457C50.269 231.457 49.1512 231.037 48.1162 230.202C40.233 223.845 39.2307 194.07 39.1937 192.805C39.185 192.517 39.3484 192.251 39.6099 192.127C39.8713 192.005 40.1807 192.048 40.3964 192.24L53.7879 204.116C53.9295 204.243 54.0167 204.419 54.0297 204.609L54.6551 214.086L80.6514 201.559C80.7887 201.493 80.9412 201.472 81.0915 201.498L95.0996 203.977C95.3414 204.021 95.5441 204.182 95.6399 204.406C95.7358 204.631 95.7119 204.89 95.5746 205.093C95.5245 205.169 94.3043 206.936 91.8814 206.52C90.1666 206.225 87.7546 206.681 86.2315 208.356C84.7063 210.036 82.4816 209.668 81.4706 209.382C79.1479 212.282 65.2793 228.991 52.4065 231.368C52.084 231.427 51.7659 231.457 51.4521 231.457H51.4499ZM40.7124 194.456C41.0479 200.929 42.6734 223.956 49.0227 229.076C50.0032 229.867 51.0251 230.152 52.1406 229.945C65.4035 227.496 80.4945 208.287 80.6448 208.093C80.8453 207.836 81.1917 207.744 81.4924 207.868C81.5142 207.877 83.8587 208.812 85.1595 207.382C87.0508 205.302 90.0206 204.733 92.1232 205.093C92.4849 205.154 92.8009 205.14 93.0732 205.086L81.0676 202.962L54.3152 215.853C54.0995 215.958 53.8445 215.947 53.6375 215.827C53.4305 215.705 53.2955 215.489 53.2802 215.25L52.6047 204.999L40.7124 194.454V194.456Z" fill="black"/>
<path d="M67.201 173.795C65.4186 174.906 63.5165 174.787 62.597 174.728C60.6752 174.604 52.6242 173.312 48.5715 166.154C44.6037 159.145 46.1464 149.478 49.565 148.18C52.0185 147.247 54.8053 150.873 58.5159 149.404C60.1588 148.755 59.991 147.894 61.7385 147.206C64.68 146.045 67.835 147.428 70.2449 148.522C74.6419 150.52 74.2126 151.76 78.0496 153.657C83.5121 156.359 87.201 155.237 87.9265 157.341C88.5061 159.019 86.7652 161.472 84.8652 162.701C80.9345 165.244 77.5311 161.634 74.3978 164.087C72.4521 165.612 72.1187 168.207 68.8221 172.316C68.5584 172.645 68.0529 173.261 67.2031 173.791L67.201 173.795Z" fill="black"/>
<path d="M71.1405 179.354C71.0969 178.724 71.0577 178.025 71.0337 177.299C72.2212 178.121 73.57 178.504 74.4742 178.236C75.5898 177.907 76.006 176.868 76.688 175.667C76.9734 175.166 77.2632 174.569 77.9452 174.144C78.3069 173.918 78.6838 173.8 79.0346 173.739C79.4639 173.667 79.7689 173.279 79.7493 172.844L79.6992 172.576C79.3004 170.471 79.3179 168.308 79.7515 166.207L80.6056 162.063C78.5444 160.678 77.6881 160.649 77.3024 160.941C77.1608 161.048 76.9734 161.098 76.8448 161.737C76.2151 164.817 73.522 163.9 71.3344 162.832C69.1468 161.765 69.0248 166.225 69.0248 166.225C69.0248 166.225 67.9942 164.061 66.0485 165.323C64.654 166.227 66.469 168.6 67.6085 169.87L64.7629 178.55C64.0134 180.835 62.0284 182.493 59.6447 182.822L56.0474 183.319C56.0474 183.319 69.2819 187.249 79.9345 184.441L74.0428 182.872C72.4217 182.441 71.2582 181.027 71.1427 179.354H71.1405Z" fill="white"/>
<path d="M71.2232 186.184C63.279 186.184 56.239 184.129 55.8381 184.012C55.5113 183.916 55.2977 183.604 55.3239 183.264C55.35 182.924 55.6093 182.65 55.9449 182.604L59.5422 182.107C61.6361 181.818 63.4141 180.334 64.0721 178.327L66.7892 170.039C65.3577 168.373 64.6996 167.013 64.8347 165.996C64.9066 165.46 65.1877 165.02 65.6518 164.719C66.58 164.118 67.3579 164.155 67.8481 164.294C68.0856 164.362 68.2991 164.462 68.4909 164.582C68.6805 163.673 69.0618 162.651 69.8157 162.194C70.1926 161.965 70.8158 161.78 71.6481 162.185C72.7833 162.739 74.3979 163.425 75.3043 162.978C75.7139 162.776 75.9863 162.322 76.1344 161.593C76.2782 160.889 76.5201 160.599 76.8404 160.381C77.6814 159.747 78.9583 160.087 81.0064 161.464C81.2505 161.627 81.3703 161.922 81.3115 162.209L80.4573 166.353C80.0412 168.371 80.0259 170.419 80.4094 172.44L80.4595 172.708C80.4661 172.743 80.4704 172.778 80.4704 172.811C80.5053 173.613 79.9388 174.316 79.1544 174.451C78.845 174.504 78.5682 174.606 78.3286 174.756C77.8645 175.046 77.6379 175.451 77.396 175.883L77.3176 176.024C77.2239 176.19 77.1345 176.353 77.0474 176.51C76.47 177.565 75.9231 178.563 74.6789 178.931C73.8815 179.166 72.8508 179.025 71.8159 178.567C71.8289 178.811 71.8464 179.057 71.8616 179.303C71.9553 180.669 72.9075 181.822 74.2279 182.173L80.1196 183.742C80.4355 183.826 80.6578 184.114 80.6556 184.441C80.6556 184.77 80.4334 185.055 80.1174 185.138C77.2217 185.901 74.1625 186.182 71.2254 186.182L71.2232 186.184ZM59.9497 183.506C63.9414 184.317 70.563 185.267 76.7663 184.347L73.8531 183.572C71.9357 183.062 70.5543 181.386 70.417 179.404C70.3669 178.691 70.332 177.992 70.3081 177.325C70.2994 177.053 70.4454 176.798 70.685 176.667C70.9247 176.536 71.2167 176.552 71.4433 176.706C72.4565 177.408 73.5917 177.743 74.2671 177.545C74.9099 177.356 75.2258 176.822 75.7771 175.817C75.8664 175.654 75.9601 175.484 76.0582 175.312L76.1322 175.179C76.422 174.663 76.7816 174.018 77.5594 173.532C77.9603 173.281 78.4157 173.111 78.9103 173.029C78.967 173.02 79.0127 172.968 79.0215 172.907L78.9844 172.711C78.5661 170.501 78.5835 168.266 79.0389 166.063L79.7928 162.401C78.1651 161.37 77.7272 161.525 77.7228 161.525C77.7076 161.538 77.6793 161.558 77.6509 161.577C77.64 161.577 77.5965 161.647 77.5485 161.882C77.3067 163.063 76.7663 163.867 75.9405 164.275C74.4828 164.991 72.5414 164.229 71.0119 163.484C70.7134 163.338 70.6044 163.405 70.563 163.429C70.0706 163.728 69.7699 165.257 69.7438 166.246C69.735 166.58 69.4975 166.865 69.1707 166.935C68.8439 167.004 68.5127 166.841 68.3689 166.538C68.2752 166.347 67.9222 165.813 67.4494 165.684C67.1531 165.601 66.8219 165.684 66.4384 165.933C66.3142 166.013 66.2815 166.089 66.2684 166.187C66.2052 166.656 66.6672 167.743 68.1423 169.39C68.3144 169.582 68.3711 169.852 68.2904 170.098L65.4448 178.778C64.6386 181.24 62.4946 183.077 59.9497 183.508V183.506Z" fill="black"/>
<path d="M71.0314 178.022C70.9029 178.022 70.7743 177.987 70.6567 177.918C68.0638 176.338 67.7522 172.323 67.7392 172.153C67.7108 171.754 68.0115 171.41 68.4102 171.381C68.8068 171.355 69.1532 171.654 69.1816 172.05C69.1859 172.116 69.4648 175.499 71.4084 176.682C71.7483 176.889 71.8572 177.334 71.6503 177.676C71.5152 177.9 71.2755 178.022 71.0314 178.022Z" fill="black"/>
<path d="M272.173 33.7377C274.705 32.6004 277.66 33.7726 278.775 36.3566C279.889 38.9384 278.74 41.9537 276.209 43.091C273.677 44.2283 270.722 43.0562 269.607 40.4722C268.493 37.8904 269.641 34.875 272.173 33.7377Z" fill="#7D87AB"/>
</g>
<defs>
<clipPath id="clip0_1262_6014">
<rect width="399" height="400" fill="white"/>
</clipPath>
</defs>
</svg>
