<svg width="16" height="16" viewBox="0 0 16 16" fill="none" xmlns="http://www.w3.org/2000/svg">
<path d="M9.99935 1.33333H3.99935C3.64573 1.33333 3.30659 1.4738 3.05654 1.72385C2.80649 1.9739 2.66602 2.31304 2.66602 2.66666V13.3333C2.66602 13.687 2.80649 14.0261 3.05654 14.2761C3.30659 14.5262 3.64573 14.6667 3.99935 14.6667H11.9993C12.353 14.6667 12.6921 14.5262 12.9422 14.2761C13.1922 14.0261 13.3327 13.687 13.3327 13.3333V4.66666L9.99935 1.33333Z" stroke="#333333" stroke-width="1.33333" stroke-linecap="round" stroke-linejoin="round"/>
<path d="M9.33398 1.33333V3.99999C9.33398 4.35362 9.47446 4.69276 9.72451 4.9428C9.97456 5.19285 10.3137 5.33333 10.6673 5.33333H13.334" stroke="#333333" stroke-width="1.33333" stroke-linecap="round" stroke-linejoin="round"/>
<path d="M7.66667 11.3333C8.58714 11.3333 9.33333 10.5871 9.33333 9.66667C9.33333 8.74619 8.58714 8 7.66667 8C6.74619 8 6 8.74619 6 9.66667C6 10.5871 6.74619 11.3333 7.66667 11.3333Z" stroke="#333333" stroke-width="1.33333" stroke-linecap="round" stroke-linejoin="round"/>
<path d="M8.86719 10.8667L10.0005 12" stroke="#333333" stroke-width="1.33333" stroke-linecap="round" stroke-linejoin="round"/>
</svg>
