<svg width="144" height="37" viewBox="0 0 144 37" fill="none" xmlns="http://www.w3.org/2000/svg">
<path d="M28.1398 1.46484C35.7142 1.46484 38.5729 6.78477 38.5729 12.9059V21.4405L31.3813 15.5211V14.2356C31.3813 11.4613 30.4297 9.17136 27.5233 9.17136C24.6168 9.17136 23.648 11.4613 23.648 14.2356V24.3642H15.1048V14.2356C15.1048 11.4613 14.136 9.17136 11.2295 9.17136C8.32304 9.17136 7.31018 11.4613 7.31018 14.2356V24.3642H0V12.8705C0 6.74932 3.65509 1.46484 11.2295 1.46484C15.369 1.46484 18.3635 3.09422 19.7287 5.78049C21.1819 3.09422 24.3526 1.46484 28.1398 1.46484Z" fill="#263773"/>
<path d="M39.957 1.22021C47.2424 1.22027 52.5322 6.29951 52.5322 13.311V22.0298C52.5322 26.1042 51.1149 29.5078 48.7354 31.8931C46.3567 34.2773 43.042 35.6187 39.2959 35.6187C33.6776 35.6185 29.5371 33.1109 27.4258 28.6128L27.2383 28.2144L27.627 28.0063L34.1885 24.4829L34.6162 24.2524C30.37 22.5977 27.3819 18.4978 27.3818 13.2671C27.3818 6.61027 32.8452 1.22021 39.957 1.22021ZM43.5303 23.9604C42.4092 24.6177 40.8933 25.0493 38.9004 25.0493C37.3864 25.0493 35.9432 24.7689 34.6211 24.2544L34.8291 24.6948C35.161 25.4001 35.6262 26.0893 36.3066 26.6021C36.9805 27.1098 37.8935 27.4663 39.1641 27.4663C40.4943 27.4663 41.5588 27.0491 42.3164 26.3013C42.89 25.7351 43.3124 24.954 43.5303 23.9604Z" fill="#263773" stroke="#FCFDFF" stroke-width="0.930087"/>
<ellipse cx="39.5101" cy="12.6256" rx="4.18539" ry="3.72035" fill="white"/>
<path d="M47.9873 1.72314L52.875 2.33447L52.9619 2.34912C53.3588 2.44025 53.6385 2.80037 53.6289 3.20752L53.6221 3.29541L53.0107 8.18311C52.9214 8.89631 52.0657 9.17457 51.5713 8.70752L51.4775 8.604L47.2012 3.10596C46.7599 2.53856 47.168 1.73602 47.8477 1.71631L47.9873 1.72314Z" fill="#8BD7BC" stroke="white" stroke-width="0.946169"/>
<path d="M53.331 6.27268L53.8229 2.33726C53.8366 2.22766 53.7589 2.1277 53.6493 2.114L49.7139 1.62207" stroke="#8BD7BC" stroke-width="0.6" stroke-linecap="round"/>
<path d="M54.45 3.94758L54.7821 1.29089C54.7889 1.23608 54.7501 1.1861 54.6953 1.17925L52.0386 0.847168" stroke="#8BD7BC" stroke-width="0.3" stroke-linecap="round"/>
<path d="M76.9217 1.93681V15.0005H73.5998V7.96476L70.4272 13.2089H70.0913L66.9373 7.98343V15.0005H63.5967V1.93681H66.9373L70.2592 7.51687L73.5998 1.93681H76.9217ZM78.9969 1.93681H82.3374V15.0005H78.9969V1.93681ZM97.3618 7.51687V8.8419C97.3618 10.7579 96.7584 12.3131 95.5516 13.5075C94.3572 14.6894 92.802 15.2804 90.886 15.2804C88.8456 15.2804 87.1659 14.6272 85.8471 13.3209C84.5408 12.0145 83.8876 10.4033 83.8876 8.48731C83.8876 6.5713 84.5408 4.9539 85.8471 3.63509C87.1535 2.31628 88.7709 1.65687 90.6994 1.65687C91.9186 1.65687 93.0322 1.93059 94.0399 2.47802C95.0601 3.02545 95.8564 3.75328 96.4287 4.66152L93.592 6.28515C93.3308 5.87457 92.9451 5.54487 92.435 5.29604C91.9373 5.04721 91.3712 4.92279 90.7367 4.92279C89.704 4.92279 88.858 5.25872 88.1986 5.93056C87.5392 6.60241 87.2095 7.46088 87.2095 8.50597C87.2095 9.51374 87.533 10.366 88.1799 11.0627C88.8393 11.7595 89.76 12.1078 90.942 12.1078C92.4598 12.1078 93.4614 11.5355 93.9466 10.3909H90.774V7.51687H97.3618ZM105.729 15.0005L103.452 10.7828H102.257V15.0005H98.9168V1.93681H104.142C105.474 1.93681 106.587 2.36604 107.483 3.22451C108.391 4.07054 108.845 5.14674 108.845 6.45311C108.845 7.23693 108.646 7.95854 108.248 8.61795C107.85 9.26491 107.309 9.78124 106.624 10.1669L109.312 15.0005H105.729ZM102.257 5.0161V7.9461H104.105C104.516 7.95854 104.851 7.82791 105.113 7.55419C105.374 7.28048 105.505 6.92589 105.505 6.49043C105.505 6.05498 105.374 5.70039 105.113 5.42668C104.851 5.15296 104.516 5.0161 104.105 5.0161H102.257ZM118.623 15.0005L118.063 13.1156H113.714L113.154 15.0005H109.534L113.845 1.93681H117.913L122.224 15.0005H118.623ZM114.573 10.2416H117.204L115.879 5.79992L114.573 10.2416ZM131.203 1.93681V5.1654H127.974V15.0005H124.634V5.1654H121.405V1.93681H131.203ZM135.755 11.8652H140.812V15.0005H132.414V1.93681H140.719V5.05343H135.755V6.86368H140.253V9.94298H135.755V11.8652Z" fill="#8BD7BC"/>
<path d="M76.5671 26.5169V27.8419C76.5671 29.7579 75.9637 31.3131 74.7569 32.5075C73.5625 33.6894 72.0073 34.2804 70.0913 34.2804C68.0508 34.2804 66.3712 33.6272 65.0524 32.3209C63.746 31.0145 63.0929 29.4033 63.0929 27.4873C63.0929 25.5713 63.746 23.9539 65.0524 22.6351C66.3588 21.3163 67.9762 20.6569 69.9046 20.6569C71.1239 20.6569 72.2374 20.9306 73.2452 21.478C74.2654 22.0254 75.0617 22.7533 75.634 23.6615L72.7973 25.2851C72.536 24.8746 72.1503 24.5449 71.6402 24.296C71.1426 24.0472 70.5765 23.9228 69.942 23.9228C68.9093 23.9228 68.0633 24.2587 67.4039 24.9306C66.7445 25.6024 66.4148 26.4609 66.4148 27.506C66.4148 28.5137 66.7382 29.366 67.3852 30.0627C68.0446 30.7595 68.9653 31.1078 70.1472 31.1078C71.6651 31.1078 72.6667 30.5355 73.1519 29.3909H69.9793V26.5169H76.5671ZM81.4626 30.7719H85.9603V34.0005H78.1221V20.9368H81.4626V30.7719ZM97.7212 32.3209C96.4024 33.6272 94.785 34.2804 92.869 34.2804C90.953 34.2804 89.3294 33.6272 87.9981 32.3209C86.6793 31.0021 86.0199 29.3847 86.0199 27.4686C86.0199 25.5526 86.6793 23.9415 87.9981 22.6351C89.3294 21.3163 90.953 20.6569 92.869 20.6569C94.785 20.6569 96.4024 21.3163 97.7212 22.6351C99.0525 23.9415 99.7181 25.5526 99.7181 27.4686C99.7181 29.3847 99.0525 31.0021 97.7212 32.3209ZM90.3496 30.0254C91.0214 30.6848 91.8612 31.0145 92.869 31.0145C93.8768 31.0145 94.7166 30.6848 95.3884 30.0254C96.0603 29.3536 96.3962 28.5013 96.3962 27.4686C96.3962 26.436 96.0603 25.59 95.3884 24.9306C94.7166 24.2587 93.8768 23.9228 92.869 23.9228C91.8612 23.9228 91.0214 24.2587 90.3496 24.9306C89.6777 25.59 89.3418 26.436 89.3418 27.4686C89.3418 28.5013 89.6777 29.3536 90.3496 30.0254ZM109.517 27.2447C110.611 27.8917 111.159 28.8683 111.159 30.1747C111.159 31.3318 110.761 32.2587 109.964 32.9554C109.168 33.6521 108.104 34.0005 106.773 34.0005H101.268V20.9368H106.419C107.725 20.9368 108.77 21.2727 109.554 21.9446C110.338 22.604 110.73 23.506 110.73 24.6506C110.73 25.7455 110.325 26.6102 109.517 27.2447ZM106.325 23.9228H104.608V25.9757H106.325C106.624 25.9757 106.873 25.8886 107.072 25.7144C107.283 25.5278 107.389 25.2727 107.389 24.9492C107.389 24.6382 107.29 24.3894 107.09 24.2027C106.891 24.0161 106.636 23.9228 106.325 23.9228ZM106.68 31.0145C107.016 31.0145 107.29 30.915 107.501 30.7159C107.713 30.5044 107.818 30.2369 107.818 29.9134C107.818 29.5775 107.713 29.31 107.501 29.1109C107.29 28.9119 107.016 28.8123 106.68 28.8123H104.608V31.0145H106.68ZM115.835 30.8652H120.892V34.0005H112.494V20.9368H120.799V24.0534H115.835V25.8637H120.333V28.943H115.835V30.8652Z" fill="#263773"/>
</svg>
