<svg width="162" height="43" viewBox="0 0 162 43" fill="none" xmlns="http://www.w3.org/2000/svg">
<path d="M31.5166 3.24487C39.9999 3.24487 43.2016 9.20319 43.2016 16.0589V25.6176L35.1471 18.9878V17.5482C35.1471 14.4409 34.0813 11.8762 30.8261 11.8762C27.5708 11.8762 26.4858 14.4409 26.4858 17.5482V28.8922H16.9173V17.5482C16.9173 14.4409 15.8323 11.8762 12.577 11.8762C9.3218 11.8762 8.1874 14.4409 8.1874 17.5482V28.8922H0V16.0192C0 9.16348 4.0937 3.24487 12.577 3.24487C17.2133 3.24487 20.5672 5.06978 22.0961 8.0784C23.7237 5.06978 27.2749 3.24487 31.5166 3.24487Z" fill="white"/>
<path d="M44.752 2.97131C52.9115 2.97132 58.8357 8.65961 58.8359 16.5123V26.2789C58.8358 30.8421 57.249 34.6534 54.584 37.3248C51.9199 39.9952 48.2074 41.4967 44.0117 41.4967C37.9157 41.4966 33.3731 38.8619 30.9453 34.1168L30.7168 33.651L30.5068 33.2047L30.9424 32.9713L38.291 29.025L38.7666 28.7692C34.0122 26.9152 30.668 22.3209 30.668 16.4635C30.668 9.00786 36.7867 2.97131 44.752 2.97131ZM48.7529 28.4401C47.4974 29.176 45.8001 29.6598 43.5684 29.6598C41.8741 29.6598 40.2581 29.3494 38.7783 28.774L39.0088 29.2623C39.3805 30.0523 39.901 30.8247 40.6631 31.399C41.4178 31.9678 42.441 32.3668 43.8643 32.3668C45.354 32.3668 46.5461 31.8996 47.3945 31.0621C48.0369 30.428 48.5089 29.5529 48.7529 28.4401Z" fill="white" stroke="#263773" stroke-width="1.0417"/>
<ellipse cx="44.2511" cy="15.7458" rx="4.68764" ry="4.16679" fill="#263773"/>
<path d="M51.875 1.55115L52.0303 1.56384L60.71 2.6488C61.6841 2.77079 62.3925 3.61175 62.3701 4.57263L62.3564 4.76599L61.2715 13.4447C61.0685 15.0685 59.0615 15.6695 57.9932 14.4935L57.8926 14.3734L50.2988 4.60974C49.2943 3.31795 50.288 1.47489 51.875 1.55115Z" fill="white" stroke="#263773" stroke-width="2.41636"/>
<path d="M61.4723 10.1263L62.3898 2.78628L55.0498 1.86877" stroke="white" stroke-width="0.917504" stroke-linecap="round"/>
<path d="M63.4594 5.9977L64.0711 1.10435L59.1777 0.492676" stroke="white" stroke-width="0.611669" stroke-linecap="round"/>
<path d="M88.8538 3.10305V17.7344H85.1333V9.85436L81.58 15.7278H81.2037L77.6713 9.87527V17.7344H73.9299V3.10305H77.6713L81.3919 9.35272L85.1333 3.10305H88.8538ZM91.178 3.10305H94.9195V17.7344H91.178V3.10305ZM111.747 9.35272V10.8368C111.747 12.9827 111.071 14.7245 109.719 16.0622C108.382 17.386 106.64 18.0479 104.494 18.0479C102.209 18.0479 100.327 17.3163 98.8503 15.8532C97.3872 14.3901 96.6556 12.5855 96.6556 10.4396C96.6556 8.29369 97.3872 6.48219 98.8503 5.00513C100.313 3.52806 102.125 2.78953 104.285 2.78953C105.65 2.78953 106.898 3.09609 108.026 3.70921C109.169 4.32233 110.061 5.1375 110.702 6.15473L107.525 7.97319C107.232 7.51335 106.8 7.14409 106.229 6.86539C105.671 6.5867 105.037 6.44736 104.327 6.44736C103.17 6.44736 102.222 6.82359 101.484 7.57606C100.745 8.32853 100.376 9.29001 100.376 10.4605C100.376 11.5892 100.738 12.5437 101.463 13.3241C102.202 14.1044 103.233 14.4946 104.557 14.4946C106.257 14.4946 107.378 13.8536 107.922 12.5716H104.368V9.35272H111.747ZM121.118 17.7344L118.567 13.0105H117.23V17.7344H113.488V3.10305H119.341C120.832 3.10305 122.079 3.5838 123.082 4.54528C124.1 5.49284 124.608 6.69818 124.608 8.16131C124.608 9.03919 124.385 9.8474 123.939 10.5859C123.493 11.3105 122.887 11.8888 122.121 12.3208L125.131 17.7344H121.118ZM117.23 6.55187V9.83346H119.299C119.759 9.8474 120.135 9.70108 120.428 9.39452C120.72 9.08796 120.867 8.69082 120.867 8.20311C120.867 7.7154 120.72 7.31827 120.428 7.01171C120.135 6.70515 119.759 6.55187 119.299 6.55187H117.23ZM135.559 17.7344L134.932 15.6233H130.062L129.435 17.7344H125.38L130.208 3.10305H134.764L139.593 17.7344H135.559ZM131.023 12.4044H133.97L132.486 7.42974L131.023 12.4044ZM149.649 3.10305V6.71908H146.033V17.7344H142.291V6.71908H138.675V3.10305H149.649ZM154.747 14.2229H160.411V17.7344H151.006V3.10305H160.307V6.59367H154.747V8.62115H159.784V12.07H154.747V14.2229ZM88.4567 30.3527V31.8368C88.4567 33.9827 87.7809 35.7245 86.4292 37.0622C85.0915 38.386 83.3497 39.0479 81.2037 39.0479C78.9185 39.0479 77.0373 38.3163 75.5602 36.8532C74.0971 35.3901 73.3655 33.5855 73.3655 31.4396C73.3655 29.2937 74.0971 27.4822 75.5602 26.0051C77.0234 24.5281 78.8349 23.7895 80.9947 23.7895C82.3603 23.7895 83.6075 24.0961 84.7362 24.7092C85.8788 25.3223 86.7706 26.1375 87.4116 27.1547L84.2345 28.9732C83.9419 28.5134 83.5099 28.1441 82.9386 27.8654C82.3812 27.5867 81.7472 27.4474 81.0365 27.4474C79.8799 27.4474 78.9324 27.8236 78.1939 28.5761C77.4553 29.3285 77.0861 30.29 77.0861 31.4605C77.0861 32.5892 77.4484 33.5437 78.173 34.3241C78.9115 35.1044 79.9427 35.4946 81.2664 35.4946C82.9665 35.4946 84.0882 34.8536 84.6316 33.5716H81.0783V30.3527H88.4567ZM93.9397 35.1183H98.977V38.7344H90.1982V24.1031H93.9397V35.1183ZM112.149 36.8532C110.672 38.3163 108.861 39.0479 106.715 39.0479C104.569 39.0479 102.75 38.3163 101.259 36.8532C99.7824 35.3761 99.0438 33.5646 99.0438 31.4187C99.0438 29.2728 99.7824 27.4683 101.259 26.0051C102.75 24.5281 104.569 23.7895 106.715 23.7895C108.861 23.7895 110.672 24.5281 112.149 26.0051C113.64 27.4683 114.386 29.2728 114.386 31.4187C114.386 33.5646 113.64 35.3761 112.149 36.8532ZM103.893 34.2823C104.646 35.0208 105.586 35.3901 106.715 35.3901C107.844 35.3901 108.784 35.0208 109.537 34.2823C110.289 33.5298 110.665 32.5753 110.665 31.4187C110.665 30.2621 110.289 29.3146 109.537 28.5761C108.784 27.8236 107.844 27.4474 106.715 27.4474C105.586 27.4474 104.646 27.8236 103.893 28.5761C103.141 29.3146 102.764 30.2621 102.764 31.4187C102.764 32.5753 103.141 33.5298 103.893 34.2823ZM125.36 31.1679C126.586 31.8925 127.199 32.9864 127.199 34.4495C127.199 35.7454 126.754 36.7835 125.862 37.5639C124.97 38.3442 123.779 38.7344 122.288 38.7344H116.121V24.1031H121.89C123.354 24.1031 124.524 24.4793 125.402 25.2318C126.28 25.9703 126.719 26.9805 126.719 28.2625C126.719 29.4888 126.266 30.4572 125.36 31.1679ZM121.786 27.4474H119.863V29.7466H121.786C122.12 29.7466 122.399 29.649 122.622 29.4539C122.859 29.2449 122.977 28.9593 122.977 28.597C122.977 28.2486 122.866 27.9699 122.643 27.7609C122.42 27.5519 122.134 27.4474 121.786 27.4474ZM122.183 35.3901C122.559 35.3901 122.866 35.2786 123.103 35.0556C123.34 34.8188 123.458 34.5192 123.458 34.1569C123.458 33.7806 123.34 33.481 123.103 33.2581C122.866 33.0351 122.559 32.9237 122.183 32.9237H119.863V35.3901H122.183ZM132.437 35.2229H138.101V38.7344H128.695V24.1031H137.997V27.5937H132.437V29.6212H137.474V33.07H132.437V35.2229Z" fill="white"/>
</svg>
